<?xml version="1.0" encoding="utf-8"?>
<!-- Generator: Adobe Illustrator 24.2.3, SVG Export Plug-In . SVG Version: 6.00 Build 0)  -->
<svg version="1.1" id="Capa_1" xmlns="http://www.w3.org/2000/svg" xmlns:xlink="http://www.w3.org/1999/xlink" x="0px" y="0px"
	 viewBox="0 0 595.27557 244" style="enable-background:new 0 0 595.27557 244;" xml:space="preserve">
<g id="Harri_3_">
	<g>
		<g>
			<g>
				<path d="M551.58862,45.12767h29.37634v132.12477h-29.37634V45.12767z"/>
			</g>
		</g>
		<g id="Borobil_x5F_full_5_">
			<g>
				<path d="M568.43842,37.90931c-0.02148,0-0.04297,0-0.06445,0c-0.00262-0.00635-0.00531-0.0127-0.00952-0.02288
					c-0.56677,0-1.13513,0-1.69965,0c-0.00885-0.00899-0.01392-0.01414-0.02173-0.02208
					c-0.02112,0.00679-0.04608-0.00626-0.06934,0.00748c-0.00507,0.00516-0.01013,0.01031-0.01508,0.01536
					c-0.00769-0.00727-0.01538-0.01454-0.02344-0.02211c-0.40082,0-0.80176,0-1.20209,0
					c-0.00562-0.00571-0.01068-0.01085-0.01953-0.01986c-0.1778,0-0.35938,0-0.53717,0
					c-0.00885-0.009-0.01392-0.01415-0.02277-0.02315c-0.099,0-0.20184,0-0.30084,0c-0.00885-0.009-0.01392-0.01415-0.02277-0.02316
					c-0.04889,0-0.10168,0-0.15039,0c-0.00891-0.009-0.01398-0.01415-0.02032-0.02061c-0.08447,0-0.17023,0.00006-0.25598-0.00027
					c-0.00275-0.00001-0.00543-0.004-0.00812-0.00613c-0.00507-0.00515-0.01013-0.0103-0.0152-0.01544
					c-0.05017,0-0.10028,0-0.15002,0c-0.00793-0.00753-0.01569-0.01486-0.02374-0.0225c-0.06427,0-0.12854,0-0.19214,0
					c-0.00574-0.00581-0.0108-0.01095-0.01965-0.01995c-0.04877,0-0.10156,0-0.15039,0
					c-0.00891-0.009-0.01398-0.01415-0.02283-0.02316c-0.04877,0-0.10156,0-0.15039,0
					c-0.00885-0.00901-0.01392-0.01415-0.02277-0.02316c-0.05603,0-0.11597,0-0.17188,0
					c-0.00891-0.00901-0.01398-0.01415-0.02283-0.02316c-0.03461,0-0.07306,0-0.10822,0
					c-0.00818-0.00883-0.01306-0.01411-0.01782-0.01919c-0.0434,0-0.08636,0-0.12872,0
					c-0.00812-0.00761-0.01587-0.01487-0.02399-0.0225c-0.04993,0-0.09985,0-0.14899,0
					c-0.00586-0.00591-0.01093-0.01106-0.01978-0.02006c-0.04877,0-0.10156,0-0.15039,0
					c-0.00885-0.009-0.01392-0.01415-0.02283-0.02316c-0.02734,0-0.05853,0-0.08594,0
					c-0.00885-0.00901-0.01392-0.01416-0.01904-0.01937c-0.04517-0.00699-0.09143,0.00355-0.13422-0.0054
					c-0.00726-0.00739-0.01233-0.01254-0.01831-0.01858c-0.04193,0-0.08478,0.00012-0.12762-0.00029
					c-0.00269-0.00003-0.00531-0.00425-0.01245-0.01033c-0.00085-0.001-0.00562-0.00641-0.00995-0.01142
					c-0.03668,0-0.07245,0-0.10748,0c-0.00824-0.00769-0.01605-0.0149-0.02423-0.0225c-0.03558,0-0.07117,0-0.10474,0
					c-0.00946-0.00819-0.0174-0.01503-0.026-0.0225c-0.02826,0-0.05652,0-0.08319,0
					c-0.00659-0.00668-0.01166-0.01182-0.02051-0.02083c-0.04169,0-0.08734,0-0.12891,0
					c-0.00891-0.009-0.01392-0.01414-0.01898-0.01929c-0.01697-0.00164-0.03394-0.00328-0.04755-0.0046
					c-0.00812-0.00827-0.01318-0.01342-0.01855-0.0189c-0.04254,0-0.08545,0-0.12799,0
					c-0.00812-0.00761-0.01587-0.0149-0.02399-0.0225c-0.02826,0-0.05682,0-0.08441,0
					c-0.00848-0.00777-0.01624-0.01491-0.02454-0.02249c-0.04272,0-0.08545,0-0.12714,0
					c-0.00604-0.00613-0.01111-0.01127-0.01996-0.02028c-0.0202,0-0.04425,0-0.06201,0
					c-0.01373-0.01101-0.02173-0.01744-0.03082-0.02471c-0.04248,0-0.0849,0-0.12488,0
					c-0.00732-0.00745-0.01239-0.01259-0.01923-0.01953c-0.03381,0-0.06934,0.00013-0.10492-0.00026
					c-0.00281-0.00003-0.00555-0.0037-0.00836-0.00567c-0.00507-0.00514-0.01007-0.01029-0.01514-0.01543
					c-0.03125-0.00201-0.06299,0.00212-0.08661-0.00124c-0.01208-0.01138-0.01727-0.01624-0.02289-0.02149
					c-0.04248,0-0.08533,0-0.12708,0c-0.00861-0.00785-0.01642-0.01493-0.02478-0.0225c-0.02838,0-0.0567,0-0.08398,0
					c-0.00616-0.00623-0.01123-0.01138-0.02008-0.02038c-0.03448,0-0.07288,0-0.10742,0
					c-0.00885-0.009-0.01392-0.01415-0.02045-0.02076c-0.02252-0.00109-0.04663-0.00224-0.06763-0.00326
					c-0.008-0.00815-0.01306-0.01329-0.02197-0.0223c-0.0274,0-0.05865,0-0.08594,0c-0.00885-0.009-0.01392-0.01415-0.0191-0.01942
					c-0.03564,0-0.07141,0-0.10687,0c-0.008-0.00755-0.01569-0.01487-0.02374-0.0225c-0.03558,0-0.07123,0-0.10638,0
					c-0.00562-0.00568-0.01038-0.01115-0.01575-0.01591c-0.01678-0.01485-0.04242,0.00549-0.05829-0.01538
					c-0.01605-0.02111-0.04034-0.0139-0.05933-0.01078c-0.04749,0.00777-0.08417-0.02744-0.12891-0.02859
					c-0.00519-0.00014-0.01013-0.00962-0.01587-0.01545c-0.02063,0-0.04193,0-0.06323,0
					c-0.00806-0.00763-0.01581-0.01495-0.02374-0.0225c-0.02106,0-0.04254,0-0.06366,0
					c-0.00793-0.00754-0.01569-0.01487-0.02368-0.0225c-0.02136,0-0.04266,0-0.06329,0
					c-0.00574-0.00579-0.0108-0.01094-0.01965-0.01994c-0.02734,0-0.05853,0-0.08386,0
					c-0.01337-0.01107-0.0213-0.01768-0.03021-0.02505c-0.021,0-0.04193,0-0.05872,0
					c-0.01166-0.00905-0.01978-0.01531-0.02563-0.01986c-0.02142,0-0.03931,0-0.05859,0
					c-0.00708-0.0063-0.01489-0.01331-0.0238-0.02127c-0.01276,0-0.02692,0-0.04108,0
					c-0.008-0.00761-0.01575-0.01495-0.02368-0.02249c-0.01398,0-0.02826,0-0.04205,0
					c-0.00806-0.0076-0.01581-0.01488-0.02393-0.0225c-0.0213,0-0.04254,0-0.06213,0
					c-0.00922-0.00809-0.01709-0.015-0.02246-0.01973c-0.02435-0.00153-0.05157,0.00494-0.065-0.00604
					c-0.01929-0.01574-0.03992-0.01099-0.0575-0.01876c-0.02209-0.00971-0.04077-0.02374-0.06714-0.02135
					c-0.00739,0.00067-0.01599-0.01242-0.02527-0.02024c-0.01965,0-0.04102,0-0.06207,0
					c-0.00812-0.00769-0.01587-0.01499-0.02386-0.0225c-0.01404,0-0.02832,0-0.04187,0
					c-0.00824-0.00768-0.01599-0.01489-0.02362-0.02193c-0.03204,0.01394-0.05157-0.02162-0.07758-0.02026
					c-0.03296,0.00172-0.05347-0.03714-0.08783-0.0231c-0.02325-0.01354-0.04651-0.02709-0.07434-0.04331
					c-0.0155,0-0.03687,0-0.05792,0c-0.00812-0.00763-0.01593-0.01491-0.02399-0.0225c-0.01392,0-0.0282,0-0.03467,0
					c-0.02405-0.01257-0.04553-0.01824-0.05872-0.03207c-0.01843-0.01927-0.04126-0.00391-0.05896-0.0147
					c-0.0202-0.01228-0.03906-0.03448-0.05975-0.03614c-0.02411-0.00194-0.03418-0.02994-0.05438-0.02496
					c-0.02893,0.00711-0.04321-0.01881-0.06647-0.02331c-0.02271-0.00439-0.03906-0.03051-0.06641-0.02135
					c-0.03894-0.0271-0.08911-0.02693-0.12787-0.05563c-0.01849-0.01367-0.04126-0.02137-0.06213-0.03168
					c-0.01489-0.00736-0.02924-0.0181-0.04498-0.0209c-0.01715-0.00307-0.0318-0.00405-0.04773-0.01616
					c-0.02057-0.01559-0.05127-0.01752-0.07153-0.03335c-0.02209-0.01724-0.04803-0.02408-0.07098-0.03807
					c-0.02283-0.01392-0.0462-0.03252-0.0766-0.02254c-0.02094-0.02464-0.05389-0.02694-0.07874-0.04395
					c-0.01978-0.01354-0.03784-0.02961-0.05151-0.04044c-0.01984-0.00348-0.03577-0.00213-0.04626-0.00918
					c-0.01184-0.008-0.02246-0.01311-0.03644-0.01712c-0.01501-0.00432-0.02405-0.02615-0.04517-0.0205
					c-0.03076-0.02138-0.06097-0.04473-0.09259-0.06341c-0.03064-0.01809-0.06189-0.04001-0.09918-0.04612
					c-0.00586-0.00095-0.01154-0.00839-0.0155-0.0141c-0.01886-0.0272-0.05072-0.03573-0.07697-0.04908
					c-0.03522-0.01792-0.0694-0.03981-0.10791-0.05114c-0.01733-0.02876-0.05042-0.0351-0.07477-0.05387
					c-0.02435-0.01875-0.04944-0.03656-0.07465-0.05408c-0.01941-0.01348-0.04425-0.02203-0.05817-0.0397
					c-0.01691-0.02142-0.04456-0.01755-0.0614-0.03697c-0.01044-0.01204-0.03265-0.00618-0.04419-0.02336
					c-0.00739-0.01103-0.02039-0.02407-0.03186-0.02514c-0.02136-0.00198-0.03253-0.01646-0.0412-0.02996
					c-0.01184-0.01841-0.03418-0.00842-0.0451-0.02264c-0.03717-0.0484-0.09869-0.06707-0.13562-0.11562
					c-0.01105-0.01451-0.03333-0.00396-0.04504-0.02266c-0.01129-0.01797-0.02734-0.04032-0.04523-0.04496
					c-0.03424-0.00889-0.05011-0.03672-0.07446-0.0556c-0.02423-0.01881-0.05719-0.0262-0.0741-0.05457
					c-0.01379-0.0232-0.04327-0.01968-0.05627-0.03564c-0.00342-0.0134-0.00586-0.02321-0.008-0.0316
					c-0.01288-0.00293-0.02264-0.00517-0.03076-0.00703c-0.0343-0.03486-0.06726-0.06831-0.10016-0.10176
					c-0.0329-0.03345-0.0614-0.07426-0.09998-0.0983c-0.03955-0.02464-0.07166-0.05508-0.10376-0.08704
					c-0.0332-0.03311-0.06567-0.06704-0.09888-0.1002c-0.02277-0.02273-0.04266-0.05408-0.07019-0.06472
					c-0.0329-0.01272-0.04791-0.03937-0.06805-0.05623c-0.00409-0.01359-0.00702-0.02326-0.00964-0.03202
					c-0.00964-0.00061-0.01666-0.00105-0.02374-0.0015c-0.01099-0.0251-0.02209-0.05019-0.04657-0.06547
					c-0.00696-0.00045-0.01392-0.00089-0.02094-0.00133c-0.0177-0.01802-0.0354-0.03603-0.05316-0.05404
					c-0.0152-0.01543-0.03192-0.02963-0.04517-0.04665c-0.01447-0.01867-0.02325-0.04224-0.03888-0.05962
					c-0.03381-0.03756-0.07037-0.07251-0.10583-0.10854c-0.03546-0.03602-0.07092-0.07204-0.10638-0.10807
					c-0.00922-0.05503-0.0636-0.07367-0.08978-0.11576c-0.00043-0.00638-0.00085-0.01346-0.00146-0.02201
					c-0.03485-0.03498-0.0705-0.07073-0.10608-0.10639c0-0.00759,0-0.01482,0-0.02001
					c-0.01495-0.01734-0.03802-0.03202-0.04077-0.04992c-0.00464-0.03026-0.02826-0.04007-0.04333-0.05853
					c-0.01361-0.01662-0.03064-0.03036-0.04553-0.04483c0.00452-0.01829-0.00269-0.02965-0.01483-0.03913
					c-0.03961-0.03098-0.0589-0.07518-0.07611-0.12123c-0.02637-0.00174-0.05261-0.01738-0.05615-0.03893
					c-0.00427-0.02579-0.02118-0.03581-0.03363-0.05191c-0.01074-0.01382-0.02936-0.02593-0.03174-0.04088
					c-0.00464-0.02973-0.03925-0.03696-0.04211-0.05849c-0.00397-0.02999-0.02551-0.04125-0.0401-0.0601
					c-0.00861-0.01107-0.01971-0.02056-0.02631-0.03267c-0.01276-0.02355-0.01733-0.05546-0.03583-0.07104
					c-0.02368-0.01999-0.0304-0.04718-0.04248-0.07078c-0.01306-0.02537-0.03027-0.04562-0.0462-0.06805
					c-0.01501-0.02124-0.01709-0.05217-0.03259-0.07288c-0.01654-0.02218-0.03113-0.0449-0.04608-0.06791
					c-0.01483-0.02281-0.02783-0.0497-0.04559-0.06752c-0.02802-0.02805-0.03711-0.0665-0.065-0.09479
					c-0.0246-0.02498-0.02655-0.06946-0.05493-0.09592c-0.0285-0.02662-0.03021-0.06794-0.05267-0.09808
					c-0.00775-0.01037-0.00806-0.02668-0.01624-0.03642c-0.01129-0.0135-0.02686-0.02335-0.03644-0.03133
					c0-0.02287,0-0.03716,0-0.05c-0.01428-0.02143-0.04504-0.02886-0.04205-0.06057c-0.02844-0.0382-0.0426-0.08398-0.06439-0.12573
					c-0.02173-0.04175-0.04376-0.08339-0.06427-0.12577c-0.02057-0.04243-0.0451-0.08364-0.06232-0.12656
					c-0.0174-0.04317-0.05267-0.08089-0.04852-0.13181c-0.01312-0.0133-0.02576-0.02617-0.03693-0.03755
					c-0.00323-0.01875-0.00201-0.03818-0.00989-0.05242c-0.02118-0.03836-0.03741-0.07906-0.05774-0.11768
					c-0.02051-0.03894-0.04437-0.07614-0.04779-0.12185c-0.02203-0.0105-0.01263-0.03819-0.02954-0.05368
					c-0.01404-0.01291-0.01105-0.03967-0.02979-0.05234c0.00793-0.02744-0.02936-0.03746-0.02338-0.06775
					c0.0033-0.0167-0.0116-0.03766-0.0199-0.05593c-0.00562-0.01228-0.01892-0.02273-0.02014-0.03487
					c-0.00208-0.02176,0.00024-0.0434-0.02161-0.05674c0.01135-0.02883-0.03436-0.0376-0.02258-0.06704
					c0.01007-0.02505-0.01984-0.03408-0.02264-0.05622c-0.00293-0.02267-0.02081-0.04058-0.02246-0.0674
					c-0.00134-0.02133-0.01929-0.04115-0.02148-0.06732c-0.0014-0.01672-0.01331-0.04241-0.02606-0.0526
					c-0.02545-0.02022-0.00543-0.04854-0.02112-0.06882c-0.02484-0.03212-0.03162-0.07486-0.05798-0.10648
					c0.00732-0.04903-0.03558-0.07987-0.0437-0.12369c-0.00232-0.01247-0.02124-0.02473-0.01935-0.03449
					c0.00659-0.03473-0.0246-0.05566-0.02551-0.08941c-0.00073-0.02743-0.02826-0.05346-0.03864-0.0809
					c-0.01538-0.04068-0.05145-0.07432-0.04468-0.12316c-0.02264-0.01735-0.02429-0.04163-0.02148-0.06737
					c-0.02594-0.01563-0.02008-0.05165-0.04297-0.06924c-0.0072-0.04384-0.05011-0.07486-0.04297-0.12383
					c-0.03064-0.01714-0.01093-0.05588-0.02899-0.07436c-0.01434-0.01463-0.00696-0.03571-0.02167-0.04602
					c-0.02271-0.01589-0.00372-0.04651-0.01636-0.05791c-0.02264-0.02056-0.00983-0.05045-0.02307-0.06695
					c-0.01562-0.01941-0.01166-0.0399-0.01892-0.05824c-0.00885-0.02242-0.02362-0.04122-0.021-0.06812
					c0.00073-0.0075-0.01202-0.01637-0.01984-0.02613c0-0.01235,0-0.02674,0-0.0411
					c-0.00751-0.00816-0.01471-0.01602-0.02209-0.0241c0-0.01417,0-0.0287,0-0.0427c-0.00751-0.0082-0.01465-0.01607-0.02216-0.0243
					c0-0.02164,0-0.04327,0-0.06317c-0.00793-0.00935-0.01477-0.01734-0.02216-0.02601c0-0.02153,0-0.04295,0-0.06374
					c-0.03864-0.03465-0.03271-0.08998-0.06262-0.13268c0-0.00963,0-0.02405,0-0.03818
					c-0.00751-0.00827-0.01471-0.01614-0.02209-0.02423c0-0.02155,0-0.04334,0-0.0644
					c-0.00757-0.00838-0.01465-0.01627-0.02216-0.02458c0-0.02162,0-0.04321,0-0.06287
					c-0.00806-0.00955-0.01477-0.01756-0.02386-0.02835c0.02423-0.04377-0.02515-0.07619-0.01959-0.12011
					c0.00128-0.00998-0.0141-0.02213-0.02179-0.03329c-0.00482-0.0218,0.00897-0.04427-0.00366-0.06402
					c-0.00537-0.00544-0.01044-0.01059-0.01587-0.0161c0-0.02137,0-0.0431,0-0.06446
					c-0.00751-0.00828-0.01465-0.01618-0.02209-0.02439c0-0.02144,0-0.04319,0-0.06402
					c-0.00763-0.00856-0.01471-0.01648-0.02216-0.02485c0-0.02886,0-0.05771,0-0.0856
					c-0.00598-0.0061-0.01105-0.01125-0.01996-0.02025c0-0.02055,0-0.04496,0-0.06302
					c-0.0108-0.01394-0.01715-0.02209-0.02429-0.03131c0-0.02858,0-0.05709,0-0.08325
					c-0.00732-0.00742-0.01239-0.01257-0.01746-0.01771c-0.00543-0.04607,0.00226-0.09289-0.00391-0.13494
					c-0.00879-0.00892-0.01379-0.01406-0.01917-0.01947c0-0.03606,0-0.07238,0-0.10842
					c-0.00739-0.00817-0.01459-0.01607-0.02209-0.02438c0-0.02133,0-0.04305,0-0.06367
					c-0.00775-0.00875-0.01471-0.01668-0.02216-0.02513c0-0.03612,0-0.07221,0-0.10723
					c-0.0061-0.00621-0.01117-0.01136-0.02002-0.02036c0-0.02055,0-0.04496,0-0.06289
					c-0.0108-0.01406-0.01709-0.02224-0.02423-0.03152c0-0.05042,0-0.10076,0-0.14856
					c-0.00745-0.00753-0.01251-0.01268-0.02136-0.02168c0-0.02789,0-0.0597,0-0.08733
					c-0.00885-0.009-0.01392-0.01415-0.01917-0.01945c0-0.04347,0-0.0871,0-0.13046
					c-0.00739-0.00808-0.01459-0.01594-0.02209-0.02414c0-0.03609,0-0.07234,0-0.10728
					c-0.00781-0.00894-0.01471-0.01689-0.02216-0.02541c0-0.0361,0-0.07218,0-0.10705
					c-0.00623-0.00632-0.01129-0.01146-0.02014-0.02047c0-0.04234,0-0.08866,0-0.12826
					c-0.0108-0.01419-0.01703-0.02239-0.01923-0.02528c0-0.02769,0-0.04883,0-0.06748
					c0.00751-0.00764,0.01257-0.01279,0.01825-0.01853c-0.00677-0.00758-0.01355-0.0152-0.02063-0.02316
					c0-0.05033,0-0.10126,0-0.1517c-0.00714-0.00794-0.01398-0.01558-0.02081-0.02319
					c0.00555-0.00565,0.01062-0.0108,0.01819-0.01852c0-0.03629,0-0.07527,0-0.11433
					c-0.005-0.00513-0.01007-0.01027-0.01703-0.01731c0-0.02251,0-0.04692,0-0.06938
					c0.00696-0.00708,0.01202-0.01223,0.01703-0.0173c0-0.49026,0-0.98045,0-1.46803
					c-0.00763-0.00774-0.0127-0.01288-0.01776-0.01803c-0.00311-0.05349,0.00098-0.10733-0.00208-0.1554
					c-0.0105-0.01036-0.01562-0.01542-0.02063-0.02038c0-0.15307,0-0.30589,0-0.45608
					c-0.00934-0.01265-0.01733-0.0235-0.026-0.03528c0.01038-0.01456,0.01819-0.02559,0.02917-0.04099
					c-0.00549-0.0186-0.01184-0.04033-0.01862-0.06334c0.00305-0.00314,0.00812-0.00829,0.01703-0.01729
					c0-0.15883,0-0.32156,0-0.48034c0.00885-0.009,0.01392-0.01415,0.01996-0.0203c0-0.0498-0.00012-0.1006,0.00024-0.15141
					c0.00006-0.00273,0.00415-0.00543,0.00922-0.01165c0.00195-0.00183,0.0072-0.00672,0.01215-0.01135
					c0-0.05889,0-0.11707,0-0.17457c0.00757-0.00833,0.01465-0.01622,0.02216-0.02451c0-0.05073,0-0.10145,0-0.15134
					c0.00586-0.00596,0.01093-0.01111,0.01978-0.02011c0-0.04235,0-0.08864,0-0.13101
					c0.00891-0.009,0.01398-0.01415,0.02283-0.02316c0-0.0569,0-0.1178,0-0.17466c0.00885-0.00901,0.01392-0.01415,0.01898-0.0193
					c0.00659-0.04601-0.00317-0.09295,0.005-0.1361c0.00763-0.00777,0.0127-0.01291,0.01855-0.01886
					c0-0.05731-0.00006-0.11542,0.00031-0.17353c0-0.0027,0.00421-0.00537,0.00653-0.00804
					c0.00488-0.00521,0.00977-0.01042,0.01489-0.01589c0-0.10159,0-0.20341,0-0.30437
					c0.00763-0.0085,0.01471-0.01641,0.02216-0.02477c0-0.05798,0-0.11596,0-0.17299
					c0.00598-0.00607,0.01105-0.01121,0.0199-0.02022c0-0.04235,0-0.08865,0-0.131c0.00885-0.00901,0.01392-0.01415,0.02277-0.02316
					c0-0.10059,0-0.20511,0-0.30567c0.00885-0.009,0.01392-0.01415,0.02087-0.02121c0-0.09243-0.00006-0.18678,0.00024-0.28113
					c0-0.00284,0.0036-0.00568,0.00549-0.00851c0.00507-0.00515,0.01013-0.01029,0.01544-0.01574c0-0.0724,0-0.14509,0-0.21747
					c0.00751-0.00822,0.01465-0.01611,0.02216-0.02439c0-0.0432,0-0.08676,0-0.12929
					c0.00769-0.00868,0.01471-0.01661,0.02216-0.02503c0-0.0434,0-0.08679,0-0.12914
					c0.00604-0.00617,0.01111-0.01131,0.01996-0.02032c0-0.02055,0-0.04495,0-0.06294
					c0.01086-0.01402,0.01715-0.02218,0.02429-0.03144c0-0.03589,0-0.0717,0-0.10496
					c0.00739-0.00749,0.01245-0.01264,0.01752-0.01778c0.00482-0.03881-0.00208-0.0784,0.00385-0.11309
					c0.00879-0.00894,0.01385-0.01409,0.0191-0.01942c0-0.02887,0-0.05793,0-0.08676
					c0.00739-0.00809,0.01459-0.01596,0.02216-0.02424c0-0.02867,0-0.05765,0-0.0854
					c0.00775-0.00887,0.01471-0.01681,0.02216-0.02531c0-0.02154,0-0.04306,0-0.06345
					c0.00616-0.00628,0.01123-0.01143,0.02008-0.02043c0-0.03508,0-0.07407,0-0.10917
					c0.00885-0.009,0.01392-0.01415,0.02032-0.02062c0.0011-0.02309,0.00226-0.04756,0.0033-0.06887
					c0.00806-0.00817,0.01312-0.01332,0.01819-0.01847c0.00116-0.02448,0.00232-0.04896,0.00323-0.06882
					c0.0094-0.00955,0.01447-0.01469,0.01959-0.01992c0-0.01445,0-0.02899,0-0.04316
					c0.00745-0.00809,0.01465-0.01594,0.02216-0.0241c0-0.0362,0-0.07243,0-0.10722
					c0.00781-0.00906,0.01471-0.01702,0.02216-0.02559c0-0.02152,0-0.04301,0-0.06179
					c0.0083-0.01031,0.01483-0.0184,0.02155-0.02669c-0.01196-0.04843,0.02448-0.08613,0.02588-0.13148
					c0.00018-0.0053,0.00946-0.01031,0.0152-0.01609c0-0.0283,0-0.05724,0-0.08574c0.02515-0.01698,0.01904-0.05314,0.04425-0.07
					c0-0.02133,0-0.04297,0-0.06484c0.03497-0.01444,0.00854-0.05503,0.03125-0.07409
					c0.01312-0.01107,0.01031-0.02514,0.01123-0.03914c0.0011-0.01712-0.00647-0.03655,0.01135-0.04972
					c0.02106-0.0155,0.00061-0.042,0.01526-0.05906c0.0047-0.00547,0.01007-0.01034,0.01569-0.01601c0-0.01388,0-0.0283,0-0.04259
					c0.00751-0.00818,0.01471-0.01604,0.02209-0.02412c0-0.01422,0-0.02874,0-0.04262
					c0.00751-0.0083,0.01465-0.01618,0.02173-0.02397c-0.01654-0.03602,0.02515-0.05682,0.02179-0.08977
					c-0.00092-0.00899,0.00397-0.02105,0.01025-0.02782c0.01447-0.01555,0.01483-0.03729,0.02814-0.0546
					c0.01282-0.01673-0.00281-0.05007,0.0246-0.06538c0.00037-0.02476-0.00336-0.05095,0.02228-0.06703
					c-0.00928-0.02527,0.02753-0.03422,0.02087-0.05626c-0.00879-0.02931,0.0188-0.04321,0.02356-0.06727
					c0.00433-0.02216,0.01721-0.04554,0.03302-0.06164c0.01788-0.01826,0.02271-0.04509,0.03845-0.0598
					c0.02271-0.02123,0.00677-0.04706,0.0202-0.06915c0.02954-0.04864,0.05768-0.09945,0.07684-0.15289
					c0.01025-0.0286,0.03821-0.03839,0.04688-0.06793c0.00714-0.02439,0.02472-0.04877,0.03455-0.07257
					c0.01147-0.02798,0.02936-0.04676,0.04871-0.06805c0-0.01343,0-0.02778,0-0.04039
					c0.02057-0.0342,0.0639-0.04905,0.06763-0.09367c0.03107-0.02426,0.0451-0.06007,0.06201-0.09397
					c0.00452-0.00903,0.00806-0.01898,0.01422-0.02667c0.01294-0.01611,0.02759-0.02814,0.0321-0.05255
					c0.00397-0.02175,0.03613-0.02923,0.04156-0.0589c0.0033-0.01797,0.03625-0.03129,0.03784-0.04842
					c0.00317-0.03459,0.03973-0.0434,0.04456-0.06892c0.0069-0.0371,0.04187-0.04774,0.05548-0.07534
					c0.01245-0.02534,0.02643-0.0477,0.04584-0.06831c0.01874-0.01991,0.04034-0.03622,0.05267-0.06475
					c0.01208-0.02791,0.05023-0.0453,0.05914-0.07317c0.00854-0.02687,0.03192-0.03851,0.03937-0.06001
					c0.0097-0.02836,0.02527-0.05113,0.04755-0.06676c0.02271-0.0159,0.01868-0.04463,0.03705-0.06169
					c0.01495-0.01386,0.02704-0.02813,0.03326-0.05165c0.00562-0.02131,0.03381-0.03589,0.05035-0.05497
					c0.01556-0.01796,0.01672-0.04451,0.03772-0.06087c0.02252-0.01755,0.04254-0.03922,0.06085-0.06147
					c0.01495-0.01819,0.02368-0.04168,0.03882-0.05969c0.04065-0.04836,0.09235-0.08581,0.1228-0.1448
					c0.01593-0.03076,0.04706-0.05482,0.07483-0.07742c0.03101-0.02521,0.03729-0.0682,0.06812-0.09157
					c0.03754-0.02844,0.05347-0.07333,0.08368-0.1068c0.03381-0.03751,0.06976-0.07323,0.10638-0.10798
					c0.01379-0.01312,0.01489-0.03089,0.0235-0.04469c0.0105-0.01686,0.02478-0.03634,0.05481-0.0308
					c0.02283-0.04261,0.06726-0.06691,0.09338-0.11221c0.02625-0.04538,0.07068-0.08004,0.10773-0.11875
					c0.03497-0.0365,0.0708-0.07215,0.10626-0.10817c0.08356-0.08491,0.16632-0.1707,0.25134-0.25405
					c0.01849-0.01815,0.02148-0.04303,0.03723-0.06112c0.00726,0,0.0144,0,0.02899,0
					c-0.00543-0.0416,0.03186-0.05665,0.05334-0.08359c0.03992-0.0034,0.05762-0.03803,0.08191-0.06213
					c0.08197-0.08134,0.16241-0.1643,0.24377-0.24696c0.00677,0,0.01379,0,0.02399,0
					c0.00275-0.00882,0.00372-0.01949,0.00891-0.02741c0.02216-0.03421,0.11377-0.12421,0.15149-0.14723
					c0.02728-0.01663,0.05017-0.03595,0.06317-0.06628c0.01288-0.02995,0.03461-0.05166,0.06409-0.0649
					c0.00299-0.00134,0.00708-0.00018,0.01117-0.00018c0.01733-0.01789,0.03491-0.03602,0.05316-0.05486
					c0-0.00615,0-0.01332,0-0.02901c0.02673,0.00619,0.0423-0.01291,0.05914-0.03034
					c0.02002-0.02079,0.04047-0.04122,0.06073-0.0618c0.0202-0.02059,0.04047-0.04117,0.06073-0.06175
					s0.04272-0.03942,0.06018-0.06224c0.01813-0.02372,0.04865-0.02454,0.06799-0.04551
					c0.03424-0.03716,0.07343-0.06997,0.10522-0.10904c0.03424-0.04203,0.08557-0.05921,0.12231-0.09848
					c0.04529-0.04842,0.08508-0.10363,0.14868-0.13391c0.03656-0.01742,0.0556-0.05975,0.09625-0.07983
					c0.0365-0.01804,0.06427-0.05647,0.09253-0.08897c0.0307-0.0354,0.07208-0.05017,0.11182-0.06902
					c0.00397-0.01237,0.00793-0.02476,0.01135-0.03562c0.01141-0.00074,0.01837-0.00119,0.02533-0.00165
					c0.02783-0.02831,0.05573-0.05661,0.08411-0.08545c0.01367,0,0.02783,0,0.04614,0
					c0.02545-0.02687,0.05225-0.056,0.08008-0.08417c0.00958-0.00974,0.02081-0.02284,0.03259-0.02439
					c0.02911-0.00385,0.03583-0.04007,0.0575-0.04284c0.02966-0.0038,0.03973-0.02718,0.05914-0.04089
					c0.02228-0.01579,0.03235-0.04541,0.06592-0.04991c0.02289-0.00306,0.02985-0.04009,0.05762-0.04195
					c0.03101-0.00207,0.0351-0.04103,0.06775-0.04635c0.02039-0.00332,0.04016-0.0283,0.05438-0.04791
					c0.01263-0.0174,0.03284-0.00971,0.04535-0.02234c0.01251-0.01261,0.02606-0.0348,0.03876-0.03448
					c0.03766,0.00093,0.04156-0.05168,0.07892-0.04563c0.02332-0.02183,0.04669-0.04367,0.07001-0.0655
					c0.03809,0.0002,0.04883-0.03762,0.07422-0.05514c0.00549-0.00381,0.01147-0.00695,0.01721-0.01038
					c0.01074,0.00001,0.02148,0.00001,0.03632,0.00001c0.01282-0.01313,0.02771-0.0284,0.0426-0.04367
					c0.02728,0.00699,0.03772-0.01663,0.05133-0.03142c0.01489-0.01622,0.04187-0.00835,0.05237-0.03039
					c0.01202-0.02529,0.04218-0.02112,0.06006-0.03799c0.00909-0.00858,0.02594-0.00841,0.03558-0.01664
					c0.01343-0.01138,0.02344-0.02695,0.03198-0.0372c0.0213,0,0.0354,0,0.04871,0c0.01093-0.01109,0.02045-0.02208,0.03131-0.0315
					c0.01312-0.01136,0.02106-0.02931,0.03827-0.0332c0.01257,0,0.02332,0,0.03973,0
					c0.01276-0.03327,0.05255-0.03639,0.07703-0.06009c0.02795-0.02705,0.06549-0.03458,0.09558-0.0551
					c0.01489-0.01017,0.03345-0.01023,0.0448-0.02208c0.01959-0.02049,0.04077-0.03626,0.06738-0.04634
					c0.02472-0.00937,0.04944-0.0206,0.07141-0.03529c0.03107-0.02079,0.07141-0.02835,0.08984-0.06426
					c0.02209-0.00309,0.04266,0.00409,0.06122-0.0148c0.01343-0.01363,0.04004-0.01088,0.05084-0.03187
					c0.01111-0.02158,0.03778-0.01481,0.05206-0.03073c0.01404-0.01562,0.04108-0.00927,0.05176-0.03097
					c0.01947,0.00159,0.0332-0.00817,0.04382-0.02323c0.01477,0,0.02905,0,0.04321,0
					c0.02002-0.01369,0.03088-0.03562,0.05664-0.04606c0.02533-0.01023,0.04926-0.02085,0.07629-0.02324
					c0.01276-0.01297,0.02545-0.02583,0.0387-0.03932c0.01355,0,0.02771,0,0.04468,0
					c0.01727-0.0375,0.06091-0.04038,0.09015-0.06749c0.01965,0,0.04077,0,0.04187,0
					c0.04236-0.01081,0.04645-0.04713,0.07849-0.04231c0.01794-0.02025,0.04059-0.02593,0.06628-0.02183
					c0.0119-0.02003,0.03882-0.01589,0.05151-0.03057c0.01788-0.02069,0.04089-0.00634,0.05872-0.01526
					c0.02094-0.0105,0.03845-0.03071,0.06012-0.03661c0.026-0.00708,0.05206-0.00962,0.07568-0.02602
					c0.01886-0.01306,0.04633-0.01527,0.06183-0.03071c0.01611-0.01608,0.03931-0.01,0.05408-0.02883
					c0.01483-0.01902,0.05078,0.00706,0.06476-0.02394c0.02106-0.00215,0.03644-0.01626,0.05383-0.02618
					c0.00275-0.00155,0.00708,0.00016,0.01062-0.00029c0.01013-0.00129,0.02582,0.00067,0.02942-0.00505
					c0.01288-0.02067,0.04053-0.01074,0.05328-0.02994c0.00317-0.00475,0.0116-0.00586,0.01764-0.00862
					c0.01794,0.00002,0.03583,0.00002,0.05389,0.00002c0.01099-0.02116,0.03943-0.01532,0.05115-0.03093
					c0.0199-0.02655,0.05853,0.00364,0.0752-0.02969c0.00269-0.00532,0.01923-0.0044,0.02942-0.00468
					c0.021-0.00059,0.04327,0.0041,0.05682-0.01902c0.03961,0.00784,0.06787-0.03502,0.1087-0.02466
					c0.00751-0.00695,0.01526-0.01417,0.0235-0.02184c0.02075,0,0.04218,0,0.06335,0c0.008-0.00751,0.01575-0.01482,0.02386-0.0225
					c0.01392,0,0.02808,0,0.03577,0c0.02856-0.0163,0.05188-0.02962,0.07916-0.04522
					c0.04425,0.02002,0.07947-0.02664,0.12469-0.02543c0.00488,0.00013,0.01007-0.00958,0.01514-0.01475
					c0.02411-0.00118,0.04822-0.00234,0.06769-0.00328c0.00946-0.00957,0.01453-0.01472,0.01965-0.01994
					c0.02856,0,0.05719,0,0.08545,0c0.00793-0.00755,0.01569-0.01488,0.02374-0.02249c0.0141,0,0.02826,0,0.04102,0
					c0.00891-0.00797,0.01678-0.01497,0.02521-0.0225c0.02118,0,0.0423,0,0.06226,0c0.00629-0.00639,0.01135-0.01154,0.0202-0.02054
					c0.02734,0,0.05853,0,0.08313,0c0.0141-0.01095,0.02216-0.01725,0.03137-0.02445c0.02087,0,0.04169,0,0.05994,0
					c0.00763-0.00772,0.0127-0.01286,0.02155-0.02187c0.03461,0,0.07306,0,0.10767,0
					c0.00867-0.00895,0.01367-0.01414,0.01862-0.01926c0.02161,0,0.04309,0,0.06415,0c0.008-0.00756,0.01569-0.01486,0.0238-0.02249
					c0.02844,0,0.05688,0,0.08466,0c0.0058-0.00584,0.01086-0.01099,0.01971-0.01999c0.02734,0,0.05853,0,0.08594,0
					c0.00885-0.009,0.01392-0.01415,0.02277-0.02316c0.0274,0,0.05859,0,0.08594,0c0.00885-0.00901,0.01392-0.01415,0.02283-0.02316
					c0.03455,0,0.07294,0,0.10742,0c0.00885-0.009,0.01392-0.01415,0.02277-0.02316c0.03461,0,0.07306,0,0.10846,0
					c0.008-0.00878,0.01288-0.01409,0.01746-0.01916c0.03638,0,0.0722,0,0.1073,0c0.00818-0.00763,0.01593-0.01488,0.02411-0.0225
					c0.02844,0,0.05682,0,0.08447,0c0.00586-0.00595,0.01093-0.01109,0.01978-0.0201c0.04169,0,0.08722,0,0.12891,0
					c0.00891-0.00901,0.01398-0.01415,0.02283-0.02316c0.04169,0,0.08722,0,0.12891,0
					c0.00885-0.009,0.01392-0.01415,0.01898-0.01932c0.04529-0.0068,0.09149,0.00334,0.13403-0.00519
					c0.00757-0.00766,0.01263-0.0128,0.01849-0.01877c0.05634,0,0.11353,0.00009,0.17072-0.00029
					c0.00269-0.00002,0.00531-0.0043,0.00793-0.00661c0.00513-0.00499,0.01025-0.00997,0.01562-0.01518
					c0.05701,0,0.11426,0,0.17065,0c0.00836-0.00771,0.01611-0.0149,0.02435-0.02249c0.07855,0,0.15704,0,0.23468,0
					c0.00598-0.00605,0.01105-0.0112,0.01837-0.01864c0.17932,0,0.3609,0,0.54169,0
					c0.00586,0.00598,0.01093,0.01113,0.01978,0.02013c0.1778,0,0.35938,0,0.53717,0c0.00885,0.009,0.01392,0.01415,0.02087,0.02125
					c0.23419,0,0.47028-0.00002,0.70636,0.00024c0.00281,0,0.00555,0.0036,0.00836,0.00552
					c0.00507,0.00515,0.01013,0.01029,0.0155,0.01576c0.20734,0,0.41492,0,0.62219,0
					c0.00812,0.0076,0.01587,0.01488,0.02332,0.02182c0.03607,0,0.07178,0,0.10651,0c0.00854-0.00778,0.0163-0.01492,0.0224-0.0205
					c0.03058,0,0.05896,0,0.08514,0c0.0097,0.00828,0.01758,0.01506,0.0224,0.01918c0.02496,0,0.04602,0,0.06378,0
					c0.00983-0.0077,0.01678-0.01316,0.02332-0.0183c0.00781,0.00791,0.01288,0.01306,0.01965,0.01995
					c0.08398,0,0.16968-0.00006,0.25537,0.00025c0.00281,0.00001,0.00555,0.00372,0.0083,0.00571
					c0.00507,0.00515,0.01013,0.01029,0.01544,0.01566c0.12146,0,0.24316,0,0.36462,0c0.008,0.00751,0.01575,0.0148,0.02393,0.02249
					c0.04248,0,0.08533,0,0.12701,0c0.00867,0.00786,0.01654,0.01494,0.02484,0.02249c0.07849,0,0.15698,0,0.23438,0
					c0.00616,0.00625,0.01123,0.01139,0.02008,0.0204c0.0918,0,0.1875,0,0.27673,0c0.01385,0.01099,0.02191,0.01735,0.03107,0.02459
					c0.04248,0,0.08484,0,0.12463,0c0.00745,0.00757,0.01251,0.01271,0.0177,0.01797
					c0.05957,0.00542,0.11993-0.00372,0.17633,0.0045c0.00812,0.00825,0.01318,0.0134,0.01837,0.01866
					c0.07861,0,0.15735,0,0.23578,0c0.008,0.00755,0.01569,0.01487,0.02374,0.02249c0.06421,0,0.12854,0,0.19153,0
					c0.00885,0.00794,0.01666,0.01496,0.02509,0.0225c0.02118,0,0.04236,0,0.06232,0c0.00623,0.00635,0.01129,0.0115,0.02014,0.0205
					c0.07031,0,0.14453,0,0.2149,0c0.00885,0.00901,0.01392,0.01415,0.02277,0.02316c0.03455,0,0.07306,0,0.10742,0
					c0.00885,0.009,0.01392,0.01415,0.01898,0.0193c0.04541,0.00434,0.09143-0.00222,0.1319,0.00302
					c0.0097,0.00983,0.01477,0.01498,0.01984,0.02013c0.05011,0.00001,0.10022,0.00001,0.14996,0.00001
					c0.00793,0.00753,0.01569,0.01486,0.02374,0.02249c0.04279,0,0.08557,0,0.12775,0
					c0.00568,0.0058,0.01074,0.01094,0.01965,0.01995c0.03442,0,0.07281,0,0.10742,0
					c0.00885,0.00901,0.01392,0.01415,0.02277,0.02316c0.0274,0,0.05859,0,0.08307,0
					c0.01416,0.01094,0.02222,0.0172,0.03149,0.02438c0.02087,0,0.04169,0,0.05981,0
					c0.00769,0.00778,0.01276,0.01293,0.01837,0.01864c0.0351,0,0.07074,0,0.10638,0c0.008,0.00762,0.01575,0.01495,0.02368,0.02249
					c0.02832,0,0.05688,0,0.08496,0c0.00812,0.0076,0.01587,0.01488,0.02399,0.02249c0.02844,0,0.05688,0,0.08459,0
					c0.0058,0.0059,0.01086,0.01105,0.01971,0.02005c0.04877,0,0.10156,0,0.15039,0c0.00885,0.009,0.01392,0.01415,0.02002,0.0203
					c0.01581,0.00177,0.03278,0.00365,0.04822,0.00538c0.00641,0.00648,0.01147,0.01163,0.01764,0.01789
					c0.02722,0,0.05554,0,0.08392,0c0.00836,0.00755,0.01617,0.01462,0.0249,0.02249c0.02014,0,0.0415,0,0.06256,0
					c0.00812,0.00769,0.01587,0.01499,0.02386,0.0225c0.02838,0,0.05695,0,0.08484,0
					c0.00824,0.00768,0.01599,0.01489,0.02423,0.02249c0.02124,0,0.04248,0,0.06183,0
					c0.0094,0.00818,0.01727,0.01503,0.02795,0.02425c0.04303-0.02471,0.07495,0.02563,0.11816,0.0199
					c0.00983-0.0013,0.02179,0.01433,0.0304,0.02049c0.02142,0,0.03931,0,0.05835,0c0.0072,0.00657,0.01495,0.0137,0.0235,0.02149
					c0.01324,0,0.02747,0,0.04132,0c0.00812,0.00762,0.01593,0.0149,0.02399,0.02249c0.0354,0,0.07117,0,0.10596,0
					c0.00842,0.00776,0.01624,0.01491,0.02448,0.0225c0.0213,0,0.04248,0,0.06152,0
					c0.00964,0.00827,0.01758,0.01505,0.02814,0.02411c0.04663-0.02212,0.08167,0.02601,0.12708,0.0239
					c0.00482-0.00022,0.01007,0.00957,0.01691,0.01651c0.03381,0,0.0694-0.00013,0.10492,0.00025
					c0.00281,0.00003,0.00555,0.00369,0.00836,0.00566c0.00507,0.00515,0.01013,0.01029,0.01544,0.01568
					c0.02118,0,0.0426,0,0.06378,0c0.008,0.00753,0.01575,0.01482,0.02393,0.02249c0.01385,0,0.02808,0,0.04114,0
					c0.00867,0.00785,0.01642,0.01493,0.02478,0.0225c0.02124,0,0.04242,0,0.06122,0
					c0.00983,0.00835,0.01776,0.01508,0.02411,0.02043c0.02924,0.0036,0.0603-0.01122,0.08069,0.01925
					c0.0426-0.00459,0.0741,0.03416,0.11261,0.02707c0.00879,0.00896,0.01385,0.0141,0.01904,0.01937c0.0213,0,0.04279,0,0.0639,0
					c0.008,0.00754,0.01569,0.01487,0.02374,0.02249c0.02844,0,0.05695,0,0.0788,0c0.02869,0.01635,0.052,0.02964,0.07581,0.0432
					c0.02618,0.00317,0.05469-0.00916,0.07861,0.01813c0.01245,0.01423,0.04211-0.00656,0.05713,0.01635
					c0.01477,0.02241,0.04218-0.00316,0.05811,0.01547c0.00507,0.00515,0.01013,0.0103,0.0152,0.01545
					c0.01434,0.00001,0.02863,0.00001,0.0426,0.00001c0.00793,0.00754,0.01562,0.01486,0.02368,0.0225
					c0.01416,0,0.02832,0,0.04095,0c0.00903,0.00801,0.01685,0.01498,0.02246,0.01997
					c0.02405,0.00139,0.05133-0.00522,0.06482,0.00571c0.01923,0.01557,0.03949,0.01153,0.05743,0.01894
					c0.02209,0.00908,0.04059,0.02401,0.06708,0.02137c0.00739-0.00074,0.01611,0.01224,0.02563,0.02013
					c0.01221,0,0.02637,0,0.04053,0c0.008,0.00762,0.01575,0.01495,0.02368,0.0225c0.01398,0,0.02826,0,0.04199,0
					c0.00812,0.0076,0.01587,0.01487,0.02289,0.02149c0.02142,0.00194,0.04236-0.00509,0.05939,0.01657
					c0.01337,0.01695,0.04169-0.00533,0.05762,0.0159c0.01282,0.01708,0.03711,0.01298,0.05292,0.02985
					c0.01263,0.01353,0.03943-0.0039,0.05786,0.01572c0.013,0.01385,0.03473,0.01923,0.05878,0.03158c0.01373,0,0.03516,0,0.05872,0
					c0.00763,0.01782,0.02704,0.01696,0.0412,0.02507c0.01477,0.00844,0.03125,0.01388,0.04431,0.02285
					c0.01532,0.01053,0.02844,0.01654,0.04688,0.01851c0.01556,0.00166,0.03009,0.01319,0.04584,0.0207
					c0.01697,0,0.03491,0,0.04944,0c0.02295,0.01317,0.04468,0.023,0.06323,0.03719
					c0.01373,0.01054,0.02734,0.00333,0.04047,0.00658c0.02264,0.00558,0.03894,0.03117,0.06635,0.02173
					c0.02191,0.01863,0.04791,0.02479,0.07568,0.0251c0.01422,0.03031,0.04541,0.01101,0.0658,0.02317
					c0.02026,0.01209,0.04047,0.02426,0.06482,0.03883c0.01605,0,0.03748,0,0.05865,0
					c0.008,0.00753,0.01581,0.01482,0.02399,0.02249c0.02814,0,0.05664,0,0.08521,0c0.01514,0.02791,0.04395,0.016,0.06537,0.02453
					c0.0246,0.00978,0.04633,0.02683,0.06903,0.04055c0.01825,0,0.03619,0,0.05585,0
					c0.00677,0.00616,0.01624,0.02044,0.02191,0.01903c0.02856-0.00707,0.03778,0.03508,0.06598,0.02464
					c0.01532,0.02639,0.04773,0.02414,0.06909,0.0425c0.01672,0.01436,0.04303,0.01655,0.0636,0.02717
					c0.02087,0.01079,0.03839,0.03095,0.06006,0.03669c0.02667,0.00707,0.05035,0.02007,0.07208,0.03382
					c0.02002,0.0127,0.04657,0.01325,0.06146,0.03449c0.02649-0.00389,0.03375,0.02257,0.05096,0.03316
					c0.01984,0.01218,0.04114,0.02189,0.06116,0.03234c0.01154,0,0.02228,0,0.02954,0
					c0.01697,0.00987,0.03131,0.01821,0.04565,0.02655c0.0022-0.00286,0.00439-0.00572,0.00659-0.00858
					c0.01294,0.01713,0.02594,0.03426,0.03473,0.04583c0.02197,0.002,0.04034-0.00206,0.04901,0.00545
					c0.039,0.0338,0.09918,0.03391,0.12451,0.08379c0.01727,0,0.03149,0,0.03827,0c0.07111,0.03719,0.13623,0.07128,0.20758,0.10862
					c0.01361,0,0.03503,0,0.05969,0c0.01068,0.01172,0.02155,0.02665,0.0354,0.03769c0.01001,0.008,0.0249,0.00938,0.03613,0.01626
					c0.04022,0.02474,0.08942,0.03528,0.11908,0.07693c0.03186-0.0032,0.05255,0.0373,0.08557,0.02372
					c0.0235,0.01566,0.03845,0.03789,0.06781,0.04834c0.02692,0.00958,0.05505,0.02391,0.08044,0.03893
					c0.02893,0.0171,0.05988,0.03164,0.08508,0.05743c0.01715,0.01761,0.04822,0.02054,0.07172,0.03271
					c0.02087,0.0108,0.04437,0.02154,0.05859,0.03909c0.0191,0.0235,0.05182,0.01945,0.0694,0.04356
					c0.00482,0.00657,0.02026,0.00414,0.02747,0.01003c0.01868,0.01511,0.03162,0.0387,0.05988,0.03812
					c0.01038,0.02226,0.0401,0.01144,0.05176,0.03094c0.01373,0.02297,0.03827,0.02795,0.05951,0.03865
					c0.02972,0.01496,0.06244,0.02654,0.08771,0.04729c0.02972,0.02436,0.06061,0.04185,0.09619,0.05519
					c0.01831,0.00688,0.03033,0.0377,0.04742,0.03999c0.0257,0.00343,0.03766,0.03356,0.06476,0.02723
					c0.0152,0.01544,0.0318,0.02973,0.04523,0.04661c0.01599,0.02011,0.04639,0.01379,0.06055,0.03788
					c0.00647,0.01106,0.0188,0.01768,0.03302,0.02322c0.02148,0.00835,0.03711,0.03504,0.05841,0.04019
					c0.02844,0.00686,0.03625,0.04008,0.05743,0.04298c0.02948,0.00404,0.04395,0.02326,0.05829,0.04142
					c0.0166,0.02098,0.04285,0.02157,0.06024,0.03801c0.01837,0.01735,0.03558,0.03587,0.05334,0.05389
					c0.04089-0.00709,0.04803,0.0526,0.0885,0.04631c0.02789,0.02831,0.05573,0.05661,0.08362,0.08492
					c0.00354,0,0.0072-0.00056,0.01068,0.00009c0.04028,0.0076,0.04761,0.06288,0.09149,0.06541
					c0.03632,0.03439,0.07263,0.06878,0.11151,0.10558c0.00885,0.00311,0.02136,0.0075,0.03101,0.0109
					c0.00275,0.01353,0.00476,0.02347,0.00647,0.03197c0.01288,0.00342,0.02258,0.006,0.02631,0.00698
					c0.05243,0.03856,0.08105,0.09715,0.14136,0.11737c0.03802,0.0386,0.07599,0.0772,0.11395,0.11579
					c0.01245,0.00432,0.02496,0.00865,0.0343,0.01189c0.00287,0.01385,0.00488,0.02379,0.00659,0.03202
					c0.0155,0.00499,0.02777,0.00891,0.03833,0.01231c0.00079,0.01187,0.00128,0.01895,0.00195,0.02878
					c0.00861,0.00263,0.01813,0.00553,0.0343,0.01047c0.01263,0.01282,0.03943,0.02779,0.0459,0.04911
					c0.01483,0.0491,0.05231,0.06905,0.09009,0.09141c0.00055,0.00705,0.00104,0.0141,0.00073,0.0096
					c0.0387,0.03934,0.07129,0.07246,0.10626,0.10804c0.0047,0.00201,0.01373,0.00585,0.02216,0.00943
					c0,0.00958,0,0.01679,0,0.02666c0.0423,0.04201,0.08569,0.08521,0.12903,0.12832c0,0.00773,0,0.0149,0,0.02488
					c0.04224,0.04196,0.08569,0.08511,0.12848,0.12761c0.00037,0.00836,0.00067,0.0155,0.00104,0.02258
					c0.02789,0.02836,0.05707,0.05545,0.08319,0.08531c0.02496,0.02853,0.06384,0.0467,0.06879,0.09096
					c0.02789,0.02822,0.05579,0.05645,0.0835,0.08445c0,0.00778,0,0.01504,0,0.02224
					c0.03552,0.03609,0.07092,0.07211,0.10645,0.10819c0.00031,0.00708,0.00067,0.01422,0.00092,0.02136
					c0.01508,0.02271,0.04749,0.03376,0.04462,0.06855c0.02026,0.02058,0.04053,0.04117,0.06079,0.06175
					c-0.00873,0.02821,0.03235,0.03824,0.0235,0.06658c0.02673,0.03175,0.06195,0.05599,0.07623,0.09893
					c0.0061,0.0185,0.02771,0.02712,0.03369,0.05166c0.00519,0.02126,0.0318,0.03708,0.04883,0.05547
					c0.0047,0.00511,0.01288,0.01118,0.01245,0.01621c-0.00262,0.03199,0.0343,0.03816,0.03912,0.05998
					c0.0069,0.03141,0.02942,0.04687,0.04724,0.06778c-0.01166,0.02905,0.03381,0.03798,0.02277,0.06682
					c0.0318,0.02366,0.04553,0.0604,0.06274,0.09374c0.01843,0.03565,0.03802,0.07106,0.0506,0.10921
					c0.01031,0.00274,0.01996,0.00531,0.02631,0.007c0.02966,0.05909,0.05829,0.11612,0.08691,0.17313
					c0.00757,0.01502,0.01184,0.03405,0.0235,0.04416c0.02484,0.02146,0.02722,0.05604,0.04974,0.07786
					c-0.00598,0.03795,0.04926,0.04204,0.04297,0.08016c0.04272,0.06491,0.06635,0.14008,0.10742,0.20586
					c-0.00421,0.03699,0.05145,0.04084,0.04297,0.08016c0.02386,0.013,0.02112,0.04216,0.03601,0.06171
					c0.01569,0.02049,0.0174,0.05182,0.03265,0.07281c0.02026,0.02786,0.02502,0.06737,0.05817,0.08124
					c0.00665,0.01985-0.00378,0.0376,0.00867,0.05489c0.01959,0.02726,0.03271,0.0591,0.04498,0.09006
					c0.01111,0.02806,0.03107,0.05087,0.03638,0.08344c0.00525,0.0319,0.026,0.06141,0.04114,0.09134
					c0.026,0.05134,0.04266,0.10829,0.08826,0.14676c0,0.02386,0,0.04501,0,0.06363
					c0.01514,0.01538,0.02777,0.02824,0.04047,0.04111c0,0.01455,0,0.02909,0,0.04399
					c0.00494,0.00493,0.0119,0.00912,0.01483,0.01528c0.01013,0.02114,0.02527,0.04261,0.02643,0.06463
					c0.00134,0.02371,0.01904,0.03802,0.02161,0.05659c0.00348,0.0249,0.02838,0.03784,0.02533,0.06738
					c-0.00214,0.02034,0.01105,0.04939,0.02698,0.06291c0.02423,0.02055,0.00104,0.05187,0.02191,0.06783
					c0.01837,0.01403,0.01031,0.03959,0.0293,0.05414c0.01697,0.013-0.00513,0.04221,0.01575,0.05838
					c0.01685,0.01303,0.00946,0.04098,0.03015,0.0532c0.00354,0.00209,0.00415,0.01395,0.00226,0.02008
					c-0.00787,0.02537,0.02484,0.03668,0.02075,0.05634c-0.00616,0.0292,0.01758,0.04432,0.02319,0.06746
					c0.00391,0.016,0.01971,0.03062,0.01953,0.04568c-0.00043,0.0239,0.00952,0.04009,0.02283,0.05648
					c-0.00897,0.03695,0.02795,0.063,0.02289,0.10031c-0.00134,0.00988,0.01404,0.02211,0.02008,0.03091
					c0,0.02172,0,0.03991,0,0.05926c0.00647,0.00729,0.01349,0.01521,0.02112,0.0239c0,0.01341,0,0.02786,0,0.04195
					c0.00757,0.00828,0.01471,0.01617,0.02216,0.02439c0,0.01416,0,0.02863,0,0.04218
					c0.00763,0.00857,0.01471,0.01648,0.02039,0.02289c0.00409,0.01883-0.00714,0.03888,0.01038,0.05245
					c0.01758,0.0136,0.00781,0.03332,0.01257,0.04946c0.00568,0.01916,0.02417,0.03189,0.02234,0.05677
					c-0.0011,0.0146,0.0127,0.03032,0.01996,0.04601c0,0.01761,0,0.03581,0,0.05502
					c0.00659,0.00735,0.01367,0.01525,0.02124,0.02374c0,0.01364,0,0.02813,0,0.04234
					c0.00745,0.00817,0.01459,0.01607,0.02216,0.02437c0,0.01405,0,0.02849,0,0.04252
					c0.00549,0.00556,0.01263,0.0098,0.01526,0.01601c0.01038,0.02476,0,0.05722,0.02734,0.07582
					c-0.01703,0.04505,0.0271,0.07866,0.02246,0.12207c-0.00079,0.00753,0.01178,0.01654,0.01971,0.0269
					c0,0.01897,0,0.04058,0,0.0622c0.00745,0.00828,0.01459,0.01617,0.02209,0.02448c0,0.01386,0,0.02838,0,0.04261
					c0.00745,0.00808,0.01465,0.01594,0.02216,0.02413c0,0.02883,0,0.0578,0,0.08005
					c0.01605,0.02905,0.02917,0.05278,0.04425,0.08011c-0.01825,0.05166,0.0202,0.09722,0.02521,0.14884
					c0.00055,0.0056,0.00952,0.01035,0.01843,0.01935c0,0.02791,0,0.05966,0,0.08735
					c0.00885,0.00901,0.01392,0.01415,0.01898,0.0193c0,0.01454,0,0.02909,0,0.04325
					c0.00745,0.00808,0.01465,0.01593,0.02216,0.02411c0,0.03621,0,0.07243,0,0.10801
					c0.00568,0.00577,0.01074,0.01092,0.01959,0.01993c0,0.03502,0,0.07402,0,0.10916
					c0.00885,0.009,0.01392,0.01415,0.02283,0.02315c0,0.03502,0,0.07416,0,0.10628
					c0.01074,0.01435,0.01691,0.02256,0.02399,0.03197c0,0.02121,0,0.04233,0,0.06083
					c0.00763,0.00776,0.0127,0.01291,0.01837,0.01864c0,0.03563,0,0.07186,0,0.10806
					c0.00745,0.00816,0.01465,0.01601,0.02209,0.0241c0,0.02872,0,0.05781,0,0.08637
					c0.00745,0.00819,0.01465,0.01606,0.02216,0.02429c0,0.02165,0,0.04328,0,0.06417
					c0.0058,0.00588,0.01086,0.01103,0.01971,0.02004c0,0.03503,0,0.07403,0,0.10916c0.00885,0.009,0.01392,0.01415,0.02277,0.02315
					c0,0.02056,0,0.04497,0,0.06552c0.00885,0.009,0.01392,0.01414,0.02283,0.02315c0,0.03514,0,0.07415,0,0.10917
					c0.00885,0.009,0.01392,0.01415,0.0199,0.02026c0,0.06439-0.00006,0.12976,0.00031,0.19513
					c0,0.00272,0.00415,0.00541,0.00958,0.01204c0.00153,0.00145,0.00684,0.0063,0.01178,0.01086c0,0.04443,0,0.08805,0,0.13095
					c0.00757,0.00837,0.01465,0.01626,0.02216,0.02456c0,0.04345,0,0.08689,0,0.12946
					c0.00586,0.00599,0.01093,0.01114,0.01978,0.02014c0,0.04956,0,0.1032,0,0.15284
					c0.00891,0.00901,0.01398,0.01415,0.02283,0.02316c0,0.04962,0,0.10325,0,0.15283
					c0.00885,0.00901,0.01392,0.01416,0.01898,0.0193c0.00067,0.00335,0.00195,0.0067,0.00195,0.01006
					c0.00012,0.05458,0,0.10917,0.00031,0.16375c0,0.00287,0.00348,0.00572,0.00531,0.00858
					c0.00507,0.00514,0.01013,0.01029,0.01593,0.01618c0,0.05737-0.00006,0.11549,0.00031,0.1736
					c0,0.00269,0.00427,0.00536,0.00659,0.00802c0.00488,0.00521,0.00977,0.01044,0.01489,0.01593c0,0.08701,0,0.17426,0,0.26062
					c0.00763,0.00854,0.01465,0.01645,0.02216,0.02483c0,0.07981,0,0.15961,0,0.23845
					c0.00598,0.00609,0.01105,0.01123,0.0199,0.02023c0,0.26798,0,0.53986,0,0.81016
					c0.00989,0.00414,0.01599,0.0067,0.02216,0.00926c0,0.01456,0,0.02911,0,0.04367
					c-0.02045-0.0016-0.02222,0.01261-0.0213,0.02738c0.00098,0.01578-0.00745,0.03797,0.0213,0.03812
					c0,0.02911,0,0.05822,0,0.08733c-0.00616,0.0026-0.01233,0.00521-0.02228,0.00941c0,0.21206,0,0.42572,0,0.63547
					c-0.00885,0.009-0.01392,0.01415-0.02075,0.02106c0,0.07076,0.00012,0.1433-0.00024,0.21584
					c0,0.00283-0.00366,0.00564-0.00562,0.00845c-0.00507,0.00515-0.01007,0.01029-0.01538,0.01567c0,0.07249,0,0.1452,0,0.21769
					c-0.00739,0.00812-0.01459,0.01601-0.02216,0.02431c0,0.10139,0,0.20316,0,0.30375
					c-0.00769,0.00881-0.01471,0.01675-0.02209,0.02523c0,0.0725,0,0.14498,0,0.21633
					c-0.00616,0.00625-0.01123,0.0114-0.02008,0.0204c0,0.10057,0,0.20509,0,0.30303
					c-0.0108,0.0141-0.01709,0.02228-0.02423,0.03157c0,0.07224,0,0.14438,0,0.214c-0.00745,0.00757-0.01251,0.01272-0.0191,0.01942
					c0,0.05644,0.00012,0.11445-0.00024,0.17246c0,0.0028-0.00378,0.00558-0.0058,0.00837
					c-0.00507,0.00515-0.01013,0.0103-0.01532,0.01556c0,0.0799,0,0.15992,0,0.23963
					c-0.00739,0.00808-0.01465,0.01594-0.02209,0.02411c0,0.05799,0,0.11606,0,0.17278
					c-0.00781,0.00899-0.01477,0.01695-0.02216,0.02549c0,0.07975,0,0.15948,0,0.23799
					c-0.00629,0.00635-0.01135,0.01149-0.0202,0.02049c0,0.0496,0,0.10324,0,0.15284
					c-0.00885,0.00901-0.01392,0.01416-0.02026,0.02064c0,0.04921,0,0.09979,0,0.15041
					c-0.00745,0.00863-0.01422,0.01662-0.02155,0.02514c-0.00104,0.01633-0.00208,0.03355-0.00287,0.04571
					c-0.00977,0.00992-0.01483,0.01507-0.0199,0.02021c0,0.02911,0,0.05822,0,0.08692
					c-0.00739,0.00808-0.01459,0.01593-0.02209,0.02412c0,0.03621,0,0.07242,0,0.10707
					c-0.00793,0.00918-0.01477,0.01715-0.02216,0.02576c0,0.02154,0,0.04299,0,0.06314
					c-0.00635,0.00645-0.01141,0.01159-0.02026,0.0206c0,0.02783,0,0.05951,0,0.08733
					c-0.00891,0.009-0.01392,0.01415-0.02283,0.02315c0,0.02783,0,0.0596,0,0.08735c-0.00885,0.009-0.01392,0.01415-0.02277,0.02315
					c0,0.03519,0,0.07424,0,0.10986c-0.00873,0.00843-0.01392,0.01342-0.01892,0.01826c0,0.03679,0,0.07315,0,0.10895
					c-0.00745,0.00822-0.01459,0.0161-0.02209,0.02434c0,0.02164,0,0.04326,0,0.06412
					c-0.0058,0.00591-0.01086,0.01105-0.01978,0.02005c0,0.02763,0,0.05944,0,0.08735
					c-0.00885,0.009-0.01392,0.01415-0.01996,0.02032c-0.00171,0.01608-0.0036,0.03329-0.00531,0.04902
					c-0.00635,0.00648-0.01141,0.01163-0.02026,0.02062c0,0.02785,0,0.05965,0,0.08735
					c-0.00885,0.009-0.01392,0.01415-0.01947,0.01975c0,0.02124,0,0.04295,0,0.06433
					c-0.00757,0.00829-0.01471,0.01616-0.02216,0.02426c0,0.01427,0,0.02877,0,0.04251
					c-0.00751,0.00841-0.01465,0.0163-0.02209,0.02461c0,0.03618,0,0.07233,0,0.10652
					c-0.00806,0.00957-0.01477,0.01759-0.02063,0.02455c0,0.02002,0.00098,0.03829-0.00031,0.05638
					c-0.00128,0.01749-0.02527,0.02377-0.02179,0.04565c0.00281,0.01714,0.00061,0.03511,0.00061,0.04495
					c-0.01123,0.01533-0.01733,0.02359-0.02106,0.0287c-0.00256,0.02557,0.00458,0.04744-0.00604,0.06769
					c-0.00507,0.00515-0.01013,0.01029-0.01556,0.0158c0,0.02137,0,0.04311,0,0.06449
					c-0.00751,0.00827-0.01465,0.01616-0.02209,0.02439c0,0.02143,0,0.04317,0,0.05945
					c-0.0144,0.02476-0.02734,0.04482-0.03784,0.06614c-0.00433,0.00884-0.00568,0.02066-0.00439,0.0306
					c0.00336,0.02653-0.02771,0.03785-0.02417,0.06771c0.00244,0.02021-0.01562,0.04319-0.02527,0.06457
					c-0.00415,0.00921-0.01349,0.01705-0.01477,0.02634c-0.0025,0.0173-0.00018,0.03317-0.01428,0.04932
					c-0.01245,0.01427-0.01337,0.03832-0.03046,0.05327c0,0.02085,0,0.04239,0,0.06151
					c-0.02582,0.02691-0.02917,0.06747-0.06262,0.08408c0,0.02352,0,0.04514,0,0.06355
					c-0.00848,0.01441-0.0202,0.02573-0.02112,0.03792c-0.0014,0.01773-0.01837,0.02168-0.02222,0.03465
					c-0.00494,0.0164,0.00269,0.03331-0.00812,0.0514c-0.0257,0.04319-0.04443,0.0907-0.07031,0.13377
					c-0.01086,0.01812-0.00433,0.03461-0.00879,0.05319c-0.01331,0.01419-0.02789,0.02976-0.04211,0.04496
					c0,0.01161,0.00439,0.02574-0.00073,0.03293c-0.03766,0.05321-0.0423,0.12064-0.07568,0.17594
					c-0.01715,0.02844-0.03973,0.05766-0.02887,0.10635c-0.01318,0.0089-0.03107,0.02099-0.04651,0.03142
					c0,0.01975,0,0.03391,0,0.04666c-0.01154,0.01171-0.02295,0.02104-0.03131,0.03263
					c-0.00568,0.00777-0.00421,0.02236-0.0108,0.02761c-0.02045,0.01631-0.01849,0.04366-0.03424,0.06288
					c-0.01428,0.01746-0.02936,0.04292-0.02747,0.06329c0.00269,0.02934-0.02515,0.04228-0.02368,0.06758
					c-0.03064,0.04489-0.04028,0.10325-0.0863,0.13754c0,0.01542,0,0.02989,0,0.04401
					c-0.01819,0.02122-0.04529,0.03571-0.04584,0.06851c-0.01758,0.0098-0.01257,0.03389-0.02368,0.04402
					c-0.02393,0.02192-0.03192,0.05488-0.05347,0.07559c-0.0213,0.02052-0.02441,0.0493-0.0437,0.07006
					c-0.02081,0.02235-0.03595,0.05006-0.05396,0.07516c-0.01794,0.02512-0.02539,0.0578-0.05298,0.07608
					c-0.00256,0.00168-0.00482,0.0055-0.00519,0.00856c-0.00323,0.02816-0.02661,0.04691-0.0329,0.07353
					c-0.03131,0.01546-0.0271,0.05765-0.05353,0.07532c-0.02551,0.01702-0.01788,0.05449-0.04529,0.06864
					c-0.02136,0.01105-0.01514,0.03768-0.02997,0.05315c-0.01392,0.01459-0.03094,0.02525-0.03418,0.05156
					c-0.00214,0.01735-0.02637,0.0319-0.04065,0.0477c0.00464,0.03526-0.03894,0.04159-0.04199,0.06936
					c-0.0033,0.03033-0.02606,0.04324-0.04395,0.05745c-0.02386,0.01892-0.01917,0.0521-0.04401,0.07025
					c-0.02179,0.01585-0.03741,0.03798-0.04871,0.0662c-0.00934,0.02347-0.03186,0.04289-0.04462,0.0684
					c-0.01074,0.0216-0.03223,0.03919-0.05219,0.05415c-0.02393,0.01797-0.02264,0.05054-0.0448,0.06916
					c-0.01923,0.01616-0.0379,0.03398-0.05292,0.0541c-0.01624,0.02179-0.02228,0.04993-0.04541,0.06865
					c-0.01184,0.00958-0.01373,0.03086-0.02405,0.04362c-0.01575,0.01961-0.03491,0.03644-0.05261,0.05445
					c-0.0152,0.01544-0.03198,0.02963-0.04517,0.04665c-0.01453,0.01867-0.02368,0.04175-0.03882,0.05975
					c-0.04065,0.04836-0.09119,0.08657-0.12305,0.1446c-0.02014,0.03668-0.05609,0.06659-0.09003,0.09272
					c-0.0379,0.02919-0.04913,0.07584-0.08203,0.10853c-0.15363,0.15263-0.30499,0.30763-0.45612,0.4628
					c-0.01971,0.02023-0.04114,0.0353-0.06415,0.0454c-0.00305,0.01125-0.00568,0.021-0.00787,0.02904
					c-0.01288,0.00288-0.02271,0.00506-0.03156,0.00704c-0.00494,0.01435-0.00928,0.02702-0.01343,0.03922
					c-0.00946,0-0.01654,0-0.02594,0c-0.02142,0.02235-0.0437,0.0459-0.06628,0.06916
					c-0.02264,0.02332-0.04901,0.04387-0.06744,0.07018c-0.01971,0.02823-0.05292,0.03153-0.07599,0.05288
					c-0.04626,0.04276-0.08154,0.09709-0.14178,0.12571c-0.02747,0.01303-0.04926,0.04243-0.06842,0.06835
					c-0.02008,0.02717-0.05499,0.02736-0.07617,0.0528c-0.02997,0.03598-0.06506,0.06754-0.09802,0.10099
					c-0.05188,0.00625-0.06702,0.07093-0.1189,0.07719c-0.02533,0.02573-0.05139,0.05079-0.07581,0.07737
					c-0.02618,0.02851-0.06586,0.03725-0.09082,0.06861c-0.01672,0.02098-0.03522,0.04008-0.06549,0.04961
					c-0.02417,0.00762-0.04132,0.03855-0.06158,0.05913c-0.0343-0.00314-0.0434,0.0386-0.06781,0.04332
					c-0.03687,0.00713-0.0495,0.03826-0.07355,0.05745c-0.01624,0.01292-0.03925,0.01041-0.05292,0.02997
					c-0.01208,0.01736-0.02863,0.04077-0.04572,0.04318c-0.0257,0.00362-0.03632,0.02067-0.05066,0.03489
					c-0.01752,0.0174-0.03564,0.0304-0.0592,0.03983c-0.01831,0.00733-0.03204,0.02835-0.04596,0.04491
					c-0.01843,0.02196-0.04065,0.03697-0.06726,0.04623c-0.01251,0.00435-0.02606,0.00801-0.03638,0.01582
					c-0.01416,0.0108-0.0249,0.02613-0.03851,0.03786c-0.02063,0.0178-0.03241,0.04918-0.06689,0.04653
					c-0.02948,0.041-0.08435,0.04982-0.11316,0.09227c-0.00507,0.0075-0.01648,0.01326-0.02576,0.01466
					c-0.02765,0.00418-0.0332,0.04248-0.05731,0.04277c-0.03497,0.00042-0.03827,0.0427-0.06812,0.04491
					c-0.02924,0.00217-0.03748,0.03057-0.05701,0.04482c-0.01093,0.00801-0.01941,0.01729-0.03387,0.02256
					c-0.01837,0.00669-0.03082,0.03329-0.04883,0.03723c-0.0271,0.00592-0.04077,0.02499-0.05933,0.04013
					c-0.01562,0.01272-0.03796,0.01175-0.05243,0.03053c-0.01666,0.02156-0.03424,0.04596-0.06628,0.04696
					c-0.01935,0.02588-0.04681,0.04031-0.07471,0.05391c-0.02142,0.01046-0.04443,0.01672-0.06,0.03827
					c-0.01007,0.01391-0.02454,0.0257-0.03925,0.03467c-0.02557,0.01561-0.06036,0.01664-0.07849,0.04341
					c-0.01721,0.02548-0.05157,0.01937-0.06824,0.04549c-0.01727,0.02695-0.05548,0.02506-0.07532,0.05353
					c-0.01282,0.01834-0.04181,0.01893-0.0592,0.03862c-0.01752,0.01985-0.047,0.02415-0.06995,0.03773
					c-0.00574,0.00339-0.01465,0.00478-0.01721,0.0097c-0.01611,0.03132-0.0553,0.02853-0.07507,0.05378
					c-0.03802-0.00586-0.04468,0.04388-0.07806,0.04558c-0.03113,0.00158-0.03412,0.04749-0.06818,0.04381
					c-0.03345,0.03562-0.0835,0.04877-0.11505,0.08774c-0.01392,0-0.02814,0-0.04199,0
					c-0.0105,0.0107-0.02063,0.02099-0.03076,0.03128c-0.01013,0.0103-0.01855,0.02498-0.03082,0.02979
					c-0.01599,0.00632-0.0318,0.00957-0.04437,0.02378c-0.00867,0.0099-0.0166,0.02031-0.03259,0.02491
					c-0.06183,0.01777-0.10266,0.07645-0.16663,0.09183c-0.00592,0.00142-0.0097,0.01058-0.01544,0.01477
					c-0.01099,0.008-0.01581,0.02222-0.03326,0.02449c-0.01556,0.00204-0.03009,0.01327-0.04492,0.02078
					c-0.02081,0.01053-0.04791,0.01632-0.06067,0.03323c-0.02069,0.02757-0.05627,0.02764-0.07611,0.05289
					c-0.03851-0.00742-0.04401,0.04483-0.07843,0.04483c-0.03906,0.03287-0.08411,0.0557-0.12909,0.07854
					c-0.01184,0.00599-0.02649,0.00792-0.03613,0.01617c-0.01337,0.01143-0.02325,0.02707-0.03156,0.03714
					c-0.02173,0-0.03583,0-0.04614,0c-0.0188,0.01573-0.03363,0.03155-0.05145,0.04221
					c-0.01984,0.01183-0.04303,0.01756-0.06342,0.02853c-0.01813,0.00973-0.02509,0.03277-0.04895,0.03865
					c-0.02197,0.00543-0.04425,0.01685-0.06195,0.0313c-0.01636,0.01341-0.04199,0.00804-0.05255,0.02998
					c-0.02716-0.00635-0.03821,0.03051-0.065,0.02498c-0.01355,0.02326-0.04272,0.01863-0.0611,0.03582
					c-0.01392,0.01303-0.03821,0.01266-0.05188,0.02969c-0.02606-0.0052-0.04498,0.00968-0.06683,0.02072
					c-0.0296,0.01495-0.05817,0.03441-0.08954,0.04311c-0.02014,0.00559-0.03021,0.0332-0.05511,0.02349
					c-0.02509-0.00978-0.03326,0.02267-0.05554,0.02237c-0.02075-0.00028-0.03009,0.0267-0.05469,0.02537
					c-0.00934-0.0005-0.01862,0.01651-0.03485,0.0186c-0.05121,0.00661-0.09064,0.04088-0.14386,0.06466
					c-0.005,0-0.01935,0-0.03326,0c-0.00793,0.00754-0.01569,0.01487-0.02374,0.0225c-0.01416,0-0.02826,0-0.04089,0
					c-0.00903,0.008-0.01691,0.01498-0.02386,0.0212c-0.01941,0-0.0376-0.00195-0.05511,0.0008
					c-0.00897,0.00142-0.01691,0.01667-0.02496,0.01632c-0.04553-0.00197-0.08105,0.04479-0.12781,0.024
					c-0.00989,0.00883-0.0177,0.01583-0.02661,0.0238c-0.01282,0-0.02698,0-0.04108,0
					c-0.00806,0.00762-0.01575,0.01495-0.02374,0.0225c-0.02112,0-0.04254,0-0.06348,0
					c-0.00806,0.00759-0.01581,0.01487-0.02393,0.0225c-0.02844,0-0.05688,0-0.08368,0
					c-0.00916,0.00809-0.01703,0.015-0.02557,0.0225c-0.02112,0-0.04224,0-0.06036,0
					c-0.01044,0.0086-0.01843,0.01516-0.0274,0.02249c-0.02814,0-0.05627,0-0.08228,0
					c-0.00708,0.00721-0.01215,0.01236-0.02106,0.02137c-0.04169,0-0.08734,0-0.12891,0
					c-0.00885,0.00901-0.01392,0.01415-0.0199,0.02024c-0.04907,0-0.09906-0.0001-0.14911,0.00029
					c-0.00269,0.00002-0.00531,0.00423-0.01196,0.00987c-0.00128,0.00146-0.00604,0.00684-0.0105,0.01186
					c-0.03662,0-0.07239,0-0.10742,0c-0.00824,0.00767-0.01599,0.01489-0.02417,0.0225c-0.04279,0-0.08551,0-0.12738,0
					c-0.00592,0.00599-0.01099,0.01114-0.01984,0.02015c-0.12048,0-0.24481,0-0.3653,0
					c-0.00885,0.009-0.01392,0.01415-0.02014,0.0205c-0.01569,0-0.03253,0-0.04724,0
					c-0.0072-0.00731-0.01227-0.01245-0.01837-0.01863c-0.10614,0-0.21326,0-0.32269,0
					c-0.00604,0.00552-0.01385,0.01263-0.0224,0.02044c-0.02032,0-0.04175,0-0.06354,0
					c-0.00739-0.0069-0.01514-0.01418-0.02258-0.02117c-0.00739,0-0.01447,0-0.02069,0
					c-0.00842,0.00775-0.01617,0.01491-0.02441,0.02248c-0.39368,0-0.78735,0-1.18005,0
					c-0.00598,0.00608-0.01105,0.01123-0.0199,0.02024c-0.19928,0-0.40234,0-0.60388,0
					C568.44348,37.89688,568.44098,37.90309,568.43842,37.90931z M552.12726,29.03709
					c-0.0025-0.00458-0.00507-0.00932-0.00763-0.01407c-0.00244,0.00243-0.00714,0.00538-0.00671,0.00718
					c0.0011,0.00514,0.00427,0.00981,0.00671,0.01466C552.12201,29.04243,552.12439,29.04,552.12726,29.03709z M553.20154,31.91283
					c-0.00287-0.00292-0.00525-0.00534-0.00763-0.00777c-0.00238,0.00485-0.00555,0.00952-0.00671,0.01466
					c-0.00037,0.0018,0.00433,0.00475,0.00671,0.00718C553.19647,31.92215,553.1991,31.9174,553.20154,31.91283z M553.5838,32.67239
					c-0.00452,0.00253-0.00922,0.00515-0.01385,0.00777c0.00238,0.00243,0.00525,0.00723,0.00702,0.00683
					c0.00507-0.00114,0.0097-0.0044,0.01447-0.00683C553.58905,32.67773,553.58667,32.6753,553.5838,32.67239z M553.69574,32.85168
					c-0.00287-0.00292-0.00525-0.00534-0.00763-0.00777c-0.00238,0.00485-0.00562,0.00952-0.00671,0.01466
					c-0.00043,0.0018,0.00433,0.00475,0.00671,0.00718C553.69067,32.861,553.69324,32.85625,553.69574,32.85168z
					 M553.85236,33.11368c0.0025,0.00458,0.00507,0.00932,0.00763,0.01406c0.00238-0.00243,0.00714-0.00538,0.00671-0.00718
					c-0.0011-0.00514-0.00433-0.0098-0.00671-0.01466C553.8576,33.10834,553.85522,33.11076,553.85236,33.11368z
					 M554.51221,34.05882c-0.00244-0.00458-0.00507-0.00932-0.00763-0.01406c-0.00238,0.00242-0.00708,0.00538-0.00671,0.00718
					c0.0011,0.00514,0.00433,0.00981,0.00671,0.01466C554.50696,34.06416,554.50934,34.06174,554.51221,34.05882z
					 M554.96344,34.5547c-0.00287-0.00291-0.00525-0.00534-0.00763-0.00777c-0.00238,0.00485-0.00562,0.00952-0.00671,0.01466
					c-0.00043,0.0018,0.00433,0.00475,0.00671,0.00718C554.95837,34.56402,554.96094,34.55928,554.96344,34.5547z"/>
			</g>
		</g>
	</g>
	<path d="M366.86694,177.13716L263.98752,95.30945V79.45442h61.4455c7.84171,0,14.33713-2.06581,19.85904-6.3161
		c5.52032-4.2515,8.20499-9.25315,8.20499-15.29013c0-6.04485-2.69095-11.06649-8.22543-15.35371
		c-5.51877-4.27148-12.0079-6.34819-19.83859-6.34819h-61.4455V10.53982h61.4455c11.24826,0,21.66141,2.15602,30.9516,6.40752
		c9.16595,4.19882,16.60031,9.92097,22.0986,17.00963c5.57068,7.18855,8.39374,15.22596,8.39374,23.89122
		c0,8.67313-2.82779,16.69903-8.40317,23.8561c-5.48886,7.04204-12.90909,12.7551-22.05615,16.98057
		c-9.29333,4.29327-19.71906,6.47049-30.98462,6.47049h-2.70197l68.16583,54.15726L366.86694,177.13716z"/>
	<path d="M507.25363,177.13716L404.37418,95.30945V79.45442h61.44553c7.84171,0,14.33713-2.06581,19.85904-6.3161
		c5.52032-4.2515,8.20499-9.25315,8.20499-15.29013c0-6.04485-2.69095-11.06649-8.22543-15.35371
		c-5.51877-4.27148-12.0079-6.34819-19.83859-6.34819h-61.44553V10.53982h61.44553c11.24826,0,21.66141,2.15602,30.9516,6.40752
		c9.16592,4.19882,16.60028,9.92097,22.09863,17.00963c5.57062,7.18855,8.39368,15.22596,8.39368,23.89122
		c0,8.67313-2.82776,16.69903-8.40314,23.8561c-5.48889,7.04204-12.90909,12.7551-22.05615,16.98057
		c-9.29333,4.29327-19.71906,6.47049-30.98462,6.47049h-2.70197l68.16583,54.15726L507.25363,177.13716z"/>
	<g>
		<g>
			<g>
				<path d="M286.43716,177.42421h-32.82748l-15.00665-29.78204L202.728,76.16514l-35.87503,71.47703l-15.00665,29.78204h-32.82748
					l15.00665-29.78204L202.728,10.6443l68.70251,136.99786L286.43716,177.42421z"/>
			</g>
		</g>
		<path d="M139.16978,10.59146v166.83275h-26.15365v-71.5005H40.18872v71.5005H14.03506V10.59146h26.15365v68.87777h72.82742
			V10.59146H139.16978z"/>
	</g>
</g>
<g>
	<path d="M146.12427,226.02512h-6.03223v5.89355h-4.47217v-5.89355h-5.99756v-4.22949h5.99756v-5.89355h4.47217v5.89355h6.03223
		V226.02512z"/>
	<path d="M160.927,211.77658h5.61621v19.69141h12.16846v4.57617H160.927V211.77658z"/>
	<path d="M200.65649,231.53732v4.50684h-18.79004v-24.26758h18.33936v4.50684H187.448v5.26953h11.26709v4.36816H187.448v5.61621
		H200.65649z"/>
	<path d="M220.17456,236.04416l-5.85889-8.42432l-5.75488,8.42432h-6.44824l8.979-12.3418l-8.52832-11.92578h6.37891
		l5.58154,7.86963l5.47754-7.86963h6.06689l-8.45898,11.71777l9.04834,12.5498H220.17456z"/>
	<path d="M244.37231,230.84396h-11.26709l-2.14941,5.2002h-5.75488l10.81641-24.26758h5.54688l10.85107,24.26758h-5.89355
		L244.37231,230.84396z M242.60425,226.5798l-3.84814-9.29102l-3.84814,9.29102H242.60425z"/>
	<path d="M270.40796,236.04416l-4.68018-6.76025h-0.27734h-4.88818v6.76025h-5.61621v-24.26758h10.50439
		c2.14941,0,4.01562,0.35864,5.59912,1.07471c1.58252,0.71655,2.80176,1.7334,3.65723,3.05078
		c0.85498,1.31738,1.28271,2.87744,1.28271,4.68018s-0.43311,3.35742-1.2998,4.66284
		c-0.8667,1.30591-2.09766,2.30542-3.69238,2.99878l5.44287,7.80029H270.40796z M268.98657,217.44479
		c-0.87842-0.72803-2.16113-1.09204-3.84814-1.09204h-4.57617v8.45898h4.57617c1.68701,0,2.96973-0.36938,3.84814-1.10938
		c0.87793-0.7395,1.31738-1.77954,1.31738-3.12012C270.30396,219.21872,269.8645,218.17282,268.98657,217.44479z"/>
	<path d="M280.42651,211.77658h11.02441c2.63477,0,4.96289,0.50269,6.98584,1.50806
		c2.02197,1.00537,3.59326,2.42139,4.71484,4.24683c1.12061,1.82593,1.68115,3.95215,1.68115,6.37891
		s-0.56055,4.55347-1.68115,6.37891c-1.12158,1.82593-2.69287,3.24146-4.71484,4.24683
		c-2.02295,1.00537-4.35107,1.50806-6.98584,1.50806h-11.02441V211.77658z M291.17358,231.43332
		c2.42676,0,4.3623-0.67603,5.80713-2.02808c1.44385-1.35205,2.1665-3.18359,2.1665-5.49487
		c0-2.31079-0.72266-4.14282-2.1665-5.49487c-1.44482-1.35205-3.38037-2.02808-5.80713-2.02808h-5.13086v15.0459H291.17358z"/>
	<path d="M309.06177,211.77658h5.61621v24.26758h-5.61621V211.77658z"/>
	<path d="M332.65308,235.68015c-1.7915-0.52002-3.23047-1.19604-4.31641-2.02808l1.90674-4.22949
		c1.04004,0.7627,2.27637,1.37524,3.70947,1.8374c1.43262,0.46265,2.86572,0.69336,4.29883,0.69336
		c1.59473,0,2.77344-0.23682,3.53613-0.71069c0.7627-0.47339,1.14404-1.10352,1.14404-1.8894
		c0-0.57739-0.2251-1.05737-0.67578-1.43872s-1.02881-0.6875-1.7334-0.9187c-0.70557-0.23071-1.65869-0.48535-2.86035-0.7627
		c-1.84912-0.43872-3.36279-0.87817-4.5415-1.31738c-1.17871-0.43872-2.18994-1.14404-3.0332-2.11475
		c-0.84424-0.9707-1.26562-2.26489-1.26562-3.88281c0-1.40942,0.38135-2.68677,1.14404-3.83081s1.91211-2.05078,3.44971-2.72144
		c1.53662-0.67017,3.41455-1.00537,5.6333-1.00537c1.54834,0,3.06201,0.1853,4.5415,0.55469
		c1.479,0.36987,2.77344,0.90137,3.88281,1.59473l-1.7334,4.26416c-2.24219-1.27075-4.48389-1.90674-6.72559-1.90674
		c-1.57178,0-2.7334,0.25464-3.48389,0.7627c-0.75146,0.50854-1.12695,1.17871-1.12695,2.01074s0.43359,1.45068,1.30029,1.85474
		c0.8667,0.40454,2.18945,0.80322,3.96924,1.19604c1.84863,0.43921,3.36279,0.87866,4.5415,1.31738
		c1.17871,0.43921,2.18945,1.13257,3.03369,2.08008c0.84326,0.948,1.26514,2.23071,1.26514,3.84814
		c0,1.38672-0.38721,2.6521-1.16113,3.79614c-0.7749,1.14404-1.93604,2.05127-3.48438,2.72144
		c-1.54883,0.67017-3.43213,1.00537-5.65088,1.00537C336.29858,236.46017,334.4436,236.20016,332.65308,235.68015z"/>
	<path d="M357.04126,216.35275h-7.76562v-4.57617h21.14746v4.57617h-7.76562v19.69141h-5.61621V216.35275z"/>
	<path d="M375.71021,233.58273c-1.93018-1.91821-2.89502-4.65698-2.89502-8.21631v-13.58984h5.61621v13.38184
		c0,4.34546,1.80273,6.51758,5.4082,6.51758c1.75635,0,3.09668-0.52539,4.02148-1.57739
		c0.92432-1.05151,1.38672-2.69824,1.38672-4.94019v-13.38184h5.54688v13.58984c0,3.55933-0.96533,6.2981-2.89453,8.21631
		c-1.93018,1.9187-4.62842,2.87744-8.09521,2.87744S377.6394,235.50143,375.71021,233.58273z"/>
	<path d="M400.34155,211.77658h11.02441c2.63477,0,4.96289,0.50269,6.98584,1.50806
		c2.02197,1.00537,3.59326,2.42139,4.71484,4.24683c1.12061,1.82593,1.68115,3.95215,1.68115,6.37891
		s-0.56055,4.55347-1.68115,6.37891c-1.12158,1.82593-2.69287,3.24146-4.71484,4.24683
		c-2.02295,1.00537-4.35107,1.50806-6.98584,1.50806h-11.02441V211.77658z M411.08862,231.43332
		c2.42676,0,4.3623-0.67603,5.80713-2.02808c1.44385-1.35205,2.1665-3.18359,2.1665-5.49487
		c0-2.31079-0.72266-4.14282-2.1665-5.49487c-1.44482-1.35205-3.38037-2.02808-5.80713-2.02808h-5.13086v15.0459H411.08862z"/>
	<path d="M428.97681,211.77658h5.61621v24.26758h-5.61621V211.77658z"/>
	<path d="M445.28784,234.83078c-2.02295-1.08618-3.60547-2.58276-4.74951-4.4895s-1.71631-4.05029-1.71631-6.43091
		c0-2.38013,0.57227-4.52417,1.71631-6.43091s2.72656-3.40283,4.74951-4.4895c2.02197-1.08618,4.29248-1.62939,6.81201-1.62939
		c2.51904,0,4.78418,0.54321,6.79492,1.62939c2.01074,1.08667,3.59375,2.58276,4.74951,4.4895
		c1.15527,1.90674,1.7334,4.05078,1.7334,6.43091c0,2.38062-0.57812,4.52417-1.7334,6.43091
		c-1.15576,1.90674-2.73877,3.40332-4.74951,4.4895c-2.01074,1.08667-4.27588,1.62939-6.79492,1.62939
		C449.58032,236.46017,447.30981,235.91745,445.28784,234.83078z M455.98267,230.68796
		c1.15527-0.65869,2.06299-1.57739,2.72168-2.7561s0.98779-2.5188,0.98779-4.02148c0-1.5022-0.3291-2.84277-0.98779-4.02148
		s-1.56641-2.09741-2.72168-2.7561c-1.15576-0.65869-2.4502-0.98804-3.88281-0.98804c-1.43311,0-2.72754,0.32935-3.88281,0.98804
		c-1.15576,0.65869-2.0625,1.57739-2.72119,2.7561s-0.98828,2.51929-0.98828,4.02148c0,1.50269,0.32959,2.84277,0.98828,4.02148
		s1.56543,2.09741,2.72119,2.7561c1.15527,0.65869,2.44971,0.98804,3.88281,0.98804
		C453.53247,231.67599,454.8269,231.34665,455.98267,230.68796z"/>
</g>
</svg>
