<?xml version="1.0" encoding="utf-8"?>
<!-- Generator: Adobe Illustrator 24.2.3, SVG Export Plug-In . SVG Version: 6.00 Build 0)  -->
<svg version="1.1" id="Capa_1" xmlns="http://www.w3.org/2000/svg" xmlns:xlink="http://www.w3.org/1999/xlink" x="0px" y="0px"
	 viewBox="0 0 520 97" style="enable-background:new 0 0 520 97;" xml:space="preserve">
<g id="LEXARDI_52_">
	<path d="M17.21062,11.42273h25.00039v54.76842h33.4761v19.38612H17.21062V11.42273z"/>
	<path d="M144.22911,66.7205v18.85677H82.57477V11.42273h60.2775v18.8559h-35.70042v8.68694h31.35696v18.00928h-31.35696v9.74565
		H144.22911z"/>
	<path d="M200.2709,85.57727l-12.81746-19.8103l-12.50105,19.8103h-28.49637l26.80139-37.3954l-25.84787-36.75914h28.07306
		l12.60625,18.64468l12.2881-18.64468h26.90831l-25.74269,35.80561l27.33162,38.34893H200.2709z"/>
	<path d="M280.36215,72.6529h-28.17824l-4.97974,12.92437h-25.42456l32.41653-74.15454h24.57707l32.41653,74.15454h-25.84872
		L280.36215,72.6529z M273.47623,54.64362l-7.20319-18.64468l-7.20407,18.64468H273.47623z"/>
	<path d="M346.99881,66.93259h-6.77988v18.64468h-25.0004V11.42273h35.70044c20.65692,0,33.79337,10.80522,33.79337,27.96615
		c0,10.70004-5.0849,18.75072-13.98395,23.30628l15.57288,22.88211h-26.69623L346.99881,66.93259z M349.33005,30.70281h-9.11111
		v17.37302h9.11111c6.88507,0,10.16983-3.2839,10.16983-8.68694C359.49988,33.98671,356.21512,30.70281,349.33005,30.70281z"/>
	<path d="M394.14331,11.42273h36.54791c24.78918,0,41.84406,14.08912,41.84406,37.07727s-17.05487,37.07727-41.84406,37.07727
		h-36.54791V11.42273z M429.63165,66.08511c10.48795,0,17.69116-6.25053,17.69116-17.58511
		c0-11.33544-7.20322-17.58597-17.69116-17.58597h-10.48795v35.17107H429.63165z"/>
	<path d="M481.64813,38.47034h25.00037v47.10693h-25.00037V38.47034z"/>
	<g id="Borobil_x5F_full_63_">
		<path d="M495.98798,34.11333c-0.01831,0-0.03659,0-0.05487,0c-0.00226-0.00532-0.00452-0.01063-0.00812-0.01916
			c-0.48236,0-0.96603,0-1.44647,0c-0.00754-0.00753-0.01184-0.01184-0.01849-0.01849
			c-0.01797,0.00569-0.03918-0.00524-0.05899,0.00627c-0.0043,0.00433-0.00861,0.00863-0.01285,0.01286
			c-0.00653-0.00609-0.01309-0.01218-0.01993-0.01852c-0.34113,0-0.68231,0-1.02304,0
			c-0.00479-0.00478-0.00909-0.00909-0.01663-0.01663c-0.15128,0-0.30585,0-0.45715,0
			c-0.00754-0.00754-0.01184-0.01185-0.01938-0.01939c-0.08423,0-0.17175,0-0.25601,0
			c-0.00754-0.00754-0.01184-0.01185-0.01938-0.01939c-0.0416,0-0.08652,0-0.12799,0
			c-0.00754-0.00754-0.01187-0.01185-0.01727-0.01727c-0.07187,0-0.14487,0.00005-0.21786-0.00022
			c-0.00232-0.00001-0.00461-0.00335-0.00693-0.00513c-0.0043-0.00431-0.00861-0.00862-0.01291-0.01293
			c-0.04266,0-0.08536,0-0.12766,0c-0.00677-0.00631-0.01337-0.01245-0.0202-0.01884c-0.05472,0-0.10941,0-0.16357,0
			c-0.00485-0.00486-0.00916-0.00917-0.01669-0.01671c-0.0415,0-0.08643,0-0.12802,0
			c-0.00754-0.00754-0.01184-0.01185-0.01938-0.01939c-0.04153,0-0.08646,0-0.12799,0
			c-0.00757-0.00754-0.01187-0.01185-0.01941-0.01939c-0.04767,0-0.09869,0-0.14627,0
			c-0.00754-0.00754-0.01187-0.01185-0.01941-0.01939c-0.02945,0-0.06216,0-0.0921,0
			c-0.00696-0.0074-0.01114-0.01182-0.01514-0.01607c-0.03696,0-0.07352,0-0.10956,0
			c-0.0069-0.00637-0.01352-0.01246-0.02042-0.01884c-0.04251,0-0.08499,0-0.12683,0
			c-0.00494-0.00495-0.00925-0.00926-0.01678-0.0168c-0.0415,0-0.08643,0-0.12802,0
			c-0.00754-0.00754-0.01184-0.01185-0.01938-0.01939c-0.02332,0-0.04987,0-0.07315,0
			c-0.00754-0.00755-0.01184-0.01186-0.0162-0.01622c-0.03848-0.00585-0.07782,0.00298-0.11426-0.00452
			c-0.0062-0.00619-0.0105-0.0105-0.01556-0.01556c-0.03571,0-0.07217,0.0001-0.10864-0.00025
			c-0.00229-0.00002-0.00452-0.00356-0.01056-0.00865c0,0-0.00476-0.00537-0.00851-0.00957c-0.03122,0-0.06165,0-0.0914,0
			c-0.00708-0.00644-0.01367-0.01247-0.02066-0.01884c-0.03027,0-0.06055,0-0.08917,0
			c-0.00803-0.00686-0.01474-0.01259-0.02206-0.01884c-0.02411,0-0.0481,0-0.07083,0
			c-0.00562-0.00559-0.00992-0.0099-0.01746-0.01744c-0.03546,0-0.07431,0-0.10971,0
			c-0.00754-0.00754-0.01184-0.01185-0.01617-0.01616c-0.0144-0.00138-0.02884-0.00275-0.04041-0.00385
			c-0.00693-0.00692-0.01123-0.01123-0.01584-0.01583c-0.03619,0-0.07269,0-0.10889,0
			c-0.00693-0.00638-0.01352-0.01248-0.02042-0.01884c-0.02405,0-0.04834,0-0.07184,0
			c-0.0072-0.00651-0.01385-0.01249-0.02087-0.01884c-0.03638,0-0.07272,0-0.10822,0
			c-0.00516-0.00513-0.00946-0.00944-0.017-0.01698c-0.01721,0-0.03766,0-0.05276,0c-0.01169-0.00922-0.01852-0.0146-0.02625-0.0207
			c-0.03616,0-0.07224,0-0.10626,0c-0.00623-0.00624-0.01053-0.01055-0.01636-0.01636c-0.02875,0-0.05902,0.00011-0.08929-0.00021
			l-0.00708-0.00475c-0.00433-0.00431-0.00864-0.00862-0.01294-0.01292c-0.02658-0.00168-0.05356,0.00177-0.07367-0.00104
			c-0.01031-0.00953-0.01474-0.0136-0.0195-0.018c-0.03613,0-0.0726,0-0.10812,0c-0.00735-0.00657-0.01401-0.01251-0.02109-0.01884
			c-0.02414,0-0.04828,0-0.0715,0c-0.00522-0.00522-0.00952-0.00953-0.01706-0.01707c-0.02939,0-0.06204,0-0.09143,0
			c-0.00754-0.00754-0.01184-0.01185-0.0174-0.01739c-0.01917-0.00091-0.03967-0.00188-0.05759-0.00273
			c-0.00681-0.00682-0.01111-0.01113-0.01865-0.01867c-0.02338,0-0.04996,0-0.07315,0
			c-0.00754-0.00754-0.01187-0.01185-0.01627-0.01627c-0.03033,0-0.06079,0-0.09097,0
			c-0.00677-0.00632-0.01337-0.01245-0.0202-0.01884c-0.03027,0-0.06064,0-0.09052,0
			c-0.00476-0.00476-0.00885-0.00933-0.01343-0.01332c-0.01431-0.01244-0.03607,0.0046-0.04959-0.01289
			c-0.01367-0.01768-0.03436-0.01164-0.05051-0.00903c-0.04037,0.0065-0.07166-0.02298-0.10968-0.02395
			c-0.00443-0.00011-0.00864-0.00805-0.01352-0.01293c-0.01755,0-0.03568,0-0.0538,0
			c-0.00687-0.0064-0.01346-0.01252-0.02023-0.01884c-0.01791,0-0.03619,0-0.05414,0
			c-0.00677-0.00631-0.01334-0.01245-0.0202-0.01884c-0.01813,0-0.03625,0-0.05386,0
			c-0.00485-0.00485-0.00916-0.00916-0.01669-0.0167c-0.02328,0-0.04984,0-0.07138,0
			c-0.01135-0.00928-0.01816-0.01481-0.0257-0.02098c-0.01788,0-0.03574,0-0.04996,0
			c-0.00995-0.00758-0.01685-0.01283-0.02185-0.01664c-0.01819,0-0.03345,0-0.04987,0
			c-0.00601-0.00528-0.01266-0.01114-0.02023-0.01781c-0.01089,0-0.02295,0-0.03497,0
			c-0.00684-0.00638-0.0134-0.01252-0.02017-0.01884c-0.01187,0-0.02405,0-0.03574,0
			c-0.0069-0.00636-0.01349-0.01245-0.02039-0.01884c-0.01813,0-0.03622,0-0.05289,0
			c-0.00784-0.00678-0.01453-0.01256-0.01913-0.01653c-0.02069-0.00128-0.04388,0.00414-0.05533-0.00505
			c-0.01639-0.01318-0.03394-0.00921-0.04892-0.01571c-0.01877-0.00813-0.03467-0.01988-0.0571-0.01788
			c-0.00629,0.00056-0.01364-0.0104-0.02155-0.01695c-0.01672,0-0.03491,0-0.0528,0
			c-0.00693-0.00644-0.01355-0.01255-0.02032-0.01884c-0.01196,0-0.02411,0-0.03561,0
			c-0.00705-0.00643-0.01364-0.01247-0.02011-0.01837c-0.02725,0.01168-0.04388-0.0181-0.06601-0.01697
			c-0.02808,0.00144-0.0455-0.03111-0.07477-0.01934c-0.01981-0.01134-0.03958-0.02269-0.06326-0.03628
			c-0.01318,0-0.0314,0-0.04929,0c-0.00693-0.00638-0.01355-0.01248-0.02045-0.01884c-0.01184,0-0.02396,0-0.02951,0
			c-0.02045-0.01053-0.0387-0.01528-0.04996-0.02686c-0.01566-0.01614-0.0351-0.00327-0.05017-0.01231
			c-0.01718-0.01028-0.03323-0.02888-0.05084-0.03027c-0.02054-0.00163-0.02908-0.02508-0.0463-0.0209
			c-0.0246,0.00596-0.03674-0.01575-0.05655-0.01952c-0.01935-0.00368-0.03323-0.02555-0.05652-0.01789
			c-0.03311-0.02269-0.07584-0.02255-0.10883-0.04659c-0.01572-0.01145-0.0351-0.0179-0.05286-0.02654
			c-0.0127-0.00616-0.0249-0.01516-0.03827-0.01751c-0.01465-0.00257-0.02707-0.00339-0.04068-0.01353
			c-0.01749-0.01306-0.04361-0.01467-0.06085-0.02793c-0.0188-0.01444-0.04086-0.02016-0.06039-0.03188
			c-0.01944-0.01166-0.03934-0.02724-0.06522-0.01888c-0.01776-0.02064-0.04584-0.02256-0.06696-0.03681
			c-0.01685-0.01134-0.03223-0.0248-0.04385-0.03387c-0.01694-0.00291-0.03049-0.00179-0.03937-0.00769
			c-0.0101-0.0067-0.01917-0.01098-0.03101-0.01434c-0.01279-0.00362-0.02048-0.0219-0.03845-0.01716
			c-0.02618-0.01791-0.05191-0.03746-0.07883-0.05311c-0.02609-0.01515-0.05267-0.03351-0.08441-0.03862
			c-0.00494-0.0008-0.0098-0.00702-0.01318-0.01181c-0.01605-0.02278-0.04315-0.02992-0.06549-0.04111
			c-0.03-0.01501-0.05905-0.03334-0.09183-0.04283c-0.01477-0.02409-0.04291-0.0294-0.06366-0.04512
			c-0.02069-0.0157-0.04202-0.03062-0.06351-0.04529c-0.01651-0.01129-0.03766-0.01845-0.0495-0.03325
			c-0.0144-0.01794-0.0379-0.0147-0.05225-0.03096c-0.00891-0.01008-0.0278-0.00517-0.03763-0.01957
			c-0.00629-0.00924-0.01733-0.02016-0.02707-0.02105c-0.01822-0.00166-0.02774-0.01379-0.03513-0.02509
			c-0.01007-0.01542-0.02905-0.00705-0.03836-0.01896c-0.03162-0.04053-0.08395-0.05618-0.11542-0.09684
			c-0.0094-0.01215-0.02835-0.00332-0.03836-0.01898c-0.00958-0.01505-0.02322-0.03376-0.03845-0.03765
			c-0.02914-0.00744-0.04263-0.03075-0.06335-0.04656c-0.02066-0.01575-0.04868-0.02194-0.06308-0.0457
			c-0.01175-0.01943-0.0368-0.01648-0.04791-0.02985c-0.00287-0.01122-0.00497-0.01944-0.00681-0.02647
			c-0.01093-0.00246-0.01923-0.00433-0.02618-0.00588c-0.02917-0.0292-0.05719-0.05721-0.08521-0.08523
			s-0.05228-0.06219-0.08511-0.08232c-0.03363-0.02063-0.06097-0.04613-0.08829-0.07289
			c-0.02829-0.02773-0.05591-0.05614-0.08414-0.08392c-0.01938-0.01904-0.03635-0.04529-0.05975-0.0542
			c-0.02798-0.01065-0.04077-0.03297-0.05792-0.04709c-0.00348-0.01138-0.00595-0.01948-0.00818-0.02682
			c-0.00824-0.00051-0.01416-0.00088-0.02023-0.00126c-0.00931-0.02102-0.0188-0.04203-0.03961-0.05483
			c-0.00592-0.00038-0.01187-0.00074-0.01779-0.00111c-0.01511-0.01509-0.03018-0.03017-0.04526-0.04526
			c-0.01294-0.01293-0.02719-0.02481-0.03845-0.03907c-0.01233-0.01564-0.01981-0.03538-0.03311-0.04994
			c-0.02875-0.03145-0.05991-0.06073-0.09006-0.0909c-0.03018-0.03017-0.06033-0.06034-0.09052-0.09051
			c-0.00784-0.04609-0.05414-0.06169-0.07642-0.09695c-0.00034-0.00534-0.00076-0.01127-0.00125-0.01843
			c-0.02966-0.02929-0.06-0.05923-0.09027-0.0891c0-0.00635,0-0.01241,0-0.01676c-0.01276-0.01452-0.03235-0.02682-0.0347-0.0418
			c-0.00397-0.02535-0.02405-0.03356-0.0369-0.04902c-0.0116-0.01392-0.02606-0.02543-0.03876-0.03755
			c0.00385-0.01532-0.00229-0.02483-0.0126-0.03277c-0.03369-0.02594-0.05014-0.06296-0.06479-0.10153
			c-0.02243-0.00146-0.04474-0.01455-0.04776-0.0326c-0.00363-0.0216-0.01801-0.02999-0.02866-0.04348
			c-0.00912-0.01157-0.02496-0.02172-0.02698-0.03423c-0.00397-0.0249-0.03345-0.03095-0.03586-0.04898
			c-0.00336-0.02512-0.0217-0.03455-0.03412-0.05033c-0.00729-0.00928-0.01682-0.01722-0.0224-0.02737
			c-0.01083-0.01972-0.01477-0.04645-0.03049-0.0595c-0.02017-0.01674-0.02585-0.03951-0.03616-0.05927
			c-0.01111-0.02125-0.02576-0.03821-0.03931-0.05699c-0.01282-0.01779-0.01456-0.04369-0.02771-0.06104
			c-0.0141-0.01857-0.02652-0.03761-0.03925-0.05687c-0.01263-0.0191-0.02368-0.04162-0.03882-0.05655
			c-0.02383-0.02349-0.03156-0.05569-0.0553-0.07939c-0.02097-0.02092-0.02258-0.05817-0.04672-0.08033
			c-0.02429-0.02229-0.02573-0.0569-0.04486-0.08215c-0.00659-0.00868-0.00684-0.02235-0.01379-0.0305
			c-0.00964-0.01131-0.02286-0.01956-0.03101-0.02624c0-0.01915,0-0.03112,0-0.04187
			c-0.01215-0.01794-0.03836-0.02417-0.0358-0.05073c-0.02423-0.03199-0.03629-0.07033-0.05481-0.1053
			c-0.01849-0.03497-0.03726-0.06984-0.05472-0.10534c-0.01749-0.03554-0.03836-0.07005-0.05304-0.106
			c-0.01477-0.03616-0.04483-0.06774-0.04126-0.11039c-0.01117-0.01114-0.02194-0.02192-0.03146-0.03144
			c-0.00272-0.01571-0.00168-0.03197-0.00839-0.0439c-0.01804-0.03213-0.03186-0.06621-0.04916-0.09856
			c-0.01743-0.03261-0.03775-0.06376-0.04065-0.10204c-0.01874-0.00879-0.01077-0.03199-0.02512-0.04496
			c-0.01199-0.01081-0.00943-0.03322-0.02539-0.04384c0.00677-0.02298-0.02493-0.03137-0.01987-0.05674
			c0.00281-0.01398-0.00986-0.03154-0.01694-0.04684c-0.00476-0.01028-0.01611-0.01904-0.01712-0.02921
			c-0.0018-0.01822,0.00021-0.03634-0.0184-0.04752c0.00964-0.02414-0.02927-0.03149-0.0192-0.05614
			c0.00854-0.02098-0.01694-0.02854-0.01932-0.04708c-0.00247-0.01898-0.0177-0.03399-0.0191-0.05645
			c-0.00113-0.01787-0.01639-0.03446-0.01828-0.05638c-0.00119-0.01401-0.01132-0.03552-0.02219-0.04405
			c-0.02164-0.01694-0.00464-0.04065-0.01797-0.05764c-0.02115-0.0269-0.02692-0.0627-0.04932-0.08917
			c0.00623-0.04107-0.03027-0.06689-0.0372-0.10359c-0.00198-0.01044-0.01807-0.02071-0.01648-0.02889
			c0.00562-0.02909-0.02094-0.04662-0.0217-0.07488c-0.00061-0.02297-0.02405-0.04477-0.03287-0.06775
			c-0.01312-0.03407-0.04382-0.06224-0.03802-0.10315c-0.01929-0.01453-0.02069-0.03486-0.01831-0.05643
			c-0.02206-0.01309-0.01709-0.04325-0.03656-0.05799c-0.0061-0.03671-0.04266-0.06269-0.03656-0.10371
			c-0.02606-0.01435-0.00931-0.0468-0.02469-0.06227c-0.01221-0.01225-0.00592-0.02991-0.01846-0.03855
			c-0.01932-0.01331-0.00317-0.03896-0.01385-0.0485c-0.01935-0.01722-0.00839-0.04225-0.01968-0.05607
			c-0.01331-0.01626-0.00992-0.03341-0.01608-0.04877c-0.00754-0.01877-0.02014-0.03452-0.01788-0.05705
			c0.00061-0.00628-0.01025-0.01371-0.01688-0.02188c0-0.01034,0-0.02239,0-0.03442
			c-0.00638-0.00684-0.01251-0.01341-0.01883-0.02019c0-0.01187,0-0.02404,0-0.03576
			c-0.00635-0.00686-0.01245-0.01346-0.01883-0.02035c0-0.01812,0-0.03624,0-0.0529
			c-0.00677-0.00783-0.01257-0.01452-0.01886-0.02178c0-0.01803,0-0.03597,0-0.05338
			c-0.0329-0.02902-0.02786-0.07536-0.05328-0.11112c0-0.00806,0-0.02014,0-0.03198
			c-0.00641-0.00692-0.01254-0.01352-0.01883-0.02029c0-0.01805,0-0.0363,0-0.05393
			c-0.00641-0.00702-0.01248-0.01362-0.01883-0.02059c0-0.01811,0-0.03619,0-0.05265c-0.00684-0.008-0.0126-0.01471-0.02032-0.02374
			c0.02063-0.03665-0.02139-0.06381-0.01666-0.10059c0.00107-0.00836-0.01199-0.01854-0.01855-0.02788
			c-0.00409-0.01826,0.00763-0.03708-0.00311-0.05362c-0.00455-0.00455-0.00888-0.00887-0.01349-0.01348
			c0-0.01789,0-0.03609,0-0.05399c-0.00638-0.00694-0.01248-0.01355-0.01883-0.02043c0-0.01795,0-0.03617,0-0.05362
			c-0.0065-0.00717-0.01248-0.0138-0.01883-0.02082c0-0.02417,0-0.04833,0-0.07169
			c-0.00513-0.00511-0.00943-0.00942-0.01697-0.01696c0-0.01721,0-0.03765,0-0.05278
			c-0.00922-0.01167-0.01462-0.0185-0.02072-0.02622c0-0.02394,0-0.04781,0-0.06973
			c-0.00623-0.00621-0.01053-0.01052-0.01483-0.01483c-0.00461-0.03859,0.00192-0.0778-0.00333-0.11301
			c-0.00745-0.00747-0.01178-0.01178-0.0163-0.01631c0-0.0302,0-0.06062,0-0.0908c-0.00632-0.00685-0.01242-0.01346-0.01883-0.02042
			c0-0.01786,0-0.03605,0-0.05332c-0.00656-0.00733-0.01251-0.01397-0.01886-0.02105c0-0.03025,0-0.06048,0-0.0898
			c-0.00519-0.0052-0.00949-0.00951-0.01703-0.01705c0-0.01721,0-0.03765,0-0.05268
			c-0.00922-0.01178-0.01456-0.01863-0.02063-0.02639c0-0.04223,0-0.08439,0-0.12442
			c-0.00632-0.00631-0.01062-0.01062-0.01816-0.01816c0-0.02336,0-0.05,0-0.07314c-0.00754-0.00754-0.01187-0.01185-0.0163-0.01629
			c0-0.03641,0-0.07294,0-0.10925c-0.00632-0.00677-0.01245-0.01335-0.01883-0.02021c0-0.03022,0-0.06058,0-0.08985
			c-0.00662-0.00748-0.01254-0.01414-0.01886-0.02128c0-0.03024,0-0.06045,0-0.08965
			c-0.00528-0.00529-0.00958-0.0096-0.01712-0.01714c0-0.03546,0-0.07425,0-0.10742
			c-0.00919-0.01189-0.0145-0.01875-0.01636-0.02117c0-0.02319,0-0.0409,0-0.05652c0.00638-0.0064,0.01068-0.01071,0.0155-0.01552
			c-0.00574-0.00635-0.01154-0.01273-0.01758-0.0194c0-0.04215,0-0.08481,0-0.12704
			c-0.00604-0.00665-0.01187-0.01304-0.0177-0.01942c0.00473-0.00473,0.00903-0.00904,0.0155-0.01551c0-0.03039,0-0.06304,0-0.09575
			c-0.00427-0.00429-0.00858-0.0086-0.0145-0.0145c0-0.01885,0-0.03929,0-0.05811c0.00595-0.00593,0.01025-0.01024,0.0145-0.01449
			c0-0.41059,0-0.82113,0-1.22948c-0.00647-0.00648-0.0108-0.01079-0.01511-0.0151c-0.00269-0.0448,0.00082-0.08989-0.00177-0.13015
			c-0.00891-0.00867-0.01328-0.01291-0.01758-0.01707c0-0.1282,0-0.25618,0-0.38196
			c-0.0079-0.01059-0.01471-0.01968-0.02209-0.02955c0.00879-0.01219,0.01547-0.02143,0.02478-0.03432
			c-0.00464-0.01558-0.01007-0.03378-0.01584-0.05305c0.00266-0.00263,0.00696-0.00694,0.0145-0.01448
			c0-0.13302,0-0.26931,0-0.40229c0.00754-0.00754,0.01184-0.01185,0.017-0.017c0-0.0417-0.00009-0.08426,0.00024-0.1268
			c0,0,0.00351-0.00455,0.00781-0.00976c0,0,0.00613-0.00563,0.01035-0.0095c0-0.04932,0-0.09804,0-0.1462
			c0.00641-0.00698,0.01248-0.01358,0.01886-0.02052c0-0.04248,0-0.08497,0-0.12675c0.00497-0.00499,0.00931-0.0093,0.01685-0.01684
			c0-0.03547,0-0.07423,0-0.10972c0.00754-0.00754,0.01184-0.01185,0.01938-0.01939c0-0.04765,0-0.09866,0-0.14628
			c0.00754-0.00754,0.01187-0.01185,0.01617-0.01616c0.00562-0.03853-0.00272-0.07784,0.00427-0.11398
			c0.0065-0.00651,0.0108-0.01081,0.01578-0.01579c0-0.048-0.00006-0.09667,0.00024-0.14534l0.00555-0.00673
			c0.00418-0.00436,0.00833-0.00873,0.0127-0.01331c0-0.08508,0-0.17035,0-0.25491c0.00647-0.00712,0.01248-0.01374,0.01886-0.02074
			c0-0.04856,0-0.09711,0-0.14488c0.00507-0.00508,0.00937-0.00939,0.01694-0.01693c0-0.03547,0-0.07424,0-0.10971
			c0.00754-0.00754,0.01184-0.01185,0.01938-0.01939c0-0.08424,0-0.17178,0-0.256c0.00754-0.00754,0.01184-0.01185,0.01776-0.01776
			c0-0.07741-0.00003-0.15643,0.00021-0.23544c0-0.00238,0.00302-0.00476,0.00464-0.00713
			c0.0043-0.00431,0.00864-0.00862,0.01318-0.01318c0-0.06063,0-0.12152,0-0.18213c0.00635-0.00688,0.01245-0.0135,0.01883-0.02043
			c0-0.03618,0-0.07267,0-0.10828c0.00653-0.00727,0.01251-0.01391,0.01886-0.02096c0-0.03635,0-0.07269,0-0.10816
			c0.00516-0.00517,0.00946-0.00948,0.017-0.01702c0-0.01721,0-0.03765,0-0.05271c0.00922-0.01174,0.01459-0.01858,0.02066-0.02633
			c0-0.03006,0-0.06005,0-0.0879c0.00629-0.00628,0.01059-0.01058,0.01489-0.01489c0.00415-0.0325-0.00177-0.06566,0.0033-0.09471
			c0.00748-0.00749,0.01181-0.0118,0.01627-0.01627c0-0.02418,0-0.04852,0-0.07266c0.00629-0.00678,0.01242-0.01337,0.01883-0.0203
			c0-0.02401,0-0.04828,0-0.07153c0.00662-0.00743,0.01251-0.01408,0.01886-0.0212c0-0.01804,0-0.03606,0-0.05313
			c0.00525-0.00526,0.00955-0.00957,0.01709-0.01711c0-0.02938,0-0.06203,0-0.09143
			c0.00754-0.00754,0.01187-0.01185,0.01727-0.01727c0.00095-0.01934,0.00195-0.03983,0.00284-0.05768
			c0.00684-0.00685,0.01114-0.01115,0.01547-0.01546c0.00098-0.0205,0.00195-0.041,0.00278-0.05763
			c0.00797-0.008,0.0123-0.0123,0.01666-0.01668c0-0.0121,0-0.02428,0-0.03614c0.00632-0.00677,0.01245-0.01335,0.01883-0.02019
			c0-0.03031,0-0.06066,0-0.0898c0.00668-0.00759,0.01254-0.01426,0.01886-0.02143c0-0.01802,0-0.03602,0-0.05175
			c0.00708-0.00864,0.01266-0.01541,0.01834-0.02235c-0.01019-0.04056,0.02084-0.07214,0.02203-0.11011
			c0.00015-0.00444,0.00806-0.00864,0.01291-0.01348c0-0.0237,0-0.04794,0-0.07181c0.02139-0.01422,0.0162-0.04451,0.03769-0.05862
			c0-0.01787,0-0.03599,0-0.05431c0.02975-0.01209,0.00729-0.04609,0.02658-0.06205c0.0112-0.00927,0.00876-0.02105,0.00955-0.03278
			c0.00092-0.01434-0.00552-0.03061,0.00967-0.04164c0.01791-0.01298,0.00052-0.03518,0.013-0.04947
			c0.004-0.00458,0.00854-0.00866,0.01331-0.01341c0-0.01163,0-0.0237,0-0.03567c0.00638-0.00685,0.01254-0.01343,0.01883-0.0202
			c0-0.01191,0-0.02407,0-0.03569c0.00641-0.00695,0.01248-0.01355,0.01846-0.02008
			c-0.01404-0.03017,0.02142-0.04759,0.01859-0.07518c-0.00079-0.00753,0.00339-0.01763,0.00873-0.0233
			c0.01227-0.01302,0.0126-0.03123,0.02393-0.04573c0.01093-0.01401-0.00235-0.04193,0.02094-0.05476
			c0.00034-0.02074-0.00287-0.04267,0.01898-0.05614c-0.0079-0.02117,0.02341-0.02866,0.01776-0.04712
			c-0.00751-0.02455,0.01602-0.03618,0.02002-0.05634c0.00372-0.01856,0.01468-0.03814,0.02811-0.05162
			c0.01523-0.0153,0.01935-0.03776,0.03271-0.05009c0.01932-0.01778,0.00577-0.03942,0.01718-0.05791
			c0.02518-0.04074,0.0491-0.08328,0.06543-0.12805c0.00873-0.02396,0.03253-0.03215,0.03989-0.05689
			c0.00607-0.02043,0.02106-0.04085,0.02939-0.06078c0.0098-0.02344,0.02499-0.03916,0.04144-0.05699c0-0.01125,0-0.02327,0-0.03382
			c0.01755-0.02864,0.05441-0.04108,0.05756-0.07845c0.02643-0.02032,0.03842-0.05031,0.0528-0.0787
			c0.00385-0.00756,0.00684-0.01589,0.01208-0.02234c0.01102-0.01349,0.0235-0.02356,0.02731-0.04401
			c0.00342-0.01822,0.03076-0.02448,0.0354-0.04933c0.00284-0.01505,0.03085-0.02621,0.0322-0.04055
			c0.00275-0.02897,0.03384-0.03635,0.0379-0.05772c0.00592-0.03107,0.03564-0.03998,0.04721-0.0631
			c0.01065-0.02122,0.02249-0.03995,0.03903-0.05721c0.01596-0.01668,0.03436-0.03033,0.04486-0.05423
			c0.01025-0.02337,0.04272-0.03794,0.05029-0.06128c0.00729-0.02251,0.02719-0.03225,0.03348-0.05026
			c0.00833-0.02375,0.02151-0.04282,0.0405-0.05591c0.01932-0.01332,0.01587-0.03738,0.03152-0.05167
			c0.01273-0.01161,0.02304-0.02356,0.02832-0.04325c0.00479-0.01785,0.02878-0.03005,0.04285-0.04604
			c0.01324-0.01504,0.01422-0.03728,0.0321-0.05098c0.0192-0.0147,0.03619-0.03284,0.05176-0.05148
			c0.01276-0.01524,0.0202-0.03491,0.03308-0.04999c0.03455-0.0405,0.07855-0.07186,0.10449-0.12127
			c0.01355-0.02576,0.04004-0.04591,0.06369-0.06484c0.02637-0.02111,0.03174-0.05711,0.05798-0.07669
			c0.03192-0.02382,0.04547-0.06142,0.07117-0.08944c0.02884-0.03141,0.05939-0.06133,0.09055-0.09043
			c0.01175-0.01099,0.0127-0.02587,0.02002-0.03743c0.00894-0.01412,0.02109-0.03043,0.04666-0.02579
			c0.01941-0.03569,0.05719-0.05604,0.07947-0.09398c0.02231-0.038,0.06012-0.06703,0.09167-0.09945
			c0.02979-0.03057,0.06027-0.06042,0.09042-0.09059c0.07114-0.07111,0.14154-0.14296,0.2139-0.21276
			c0.01578-0.0152,0.01831-0.03603,0.03171-0.05119c0.00616,0,0.01227,0,0.02466,0c-0.00464-0.03484,0.02713-0.04745,0.04541-0.07
			c0.03397-0.00285,0.04904-0.03185,0.0697-0.05204c0.06976-0.06812,0.13821-0.1376,0.20746-0.20683c0.00574,0,0.01175,0,0.02042,0
			c0.00232-0.00738,0.0032-0.01632,0.00757-0.02296c0.01886-0.02865,0.09683-0.10403,0.12894-0.1233
			c0.02322-0.01393,0.04266-0.03011,0.05377-0.05551c0.01096-0.02508,0.02945-0.04326,0.05453-0.05436
			c0,0,0.00604-0.00015,0.00949-0.00015c0.01474-0.01498,0.02969-0.03016,0.04523-0.04594c0-0.00515,0-0.01116,0-0.0243
			c0.0228,0.00519,0.03604-0.01082,0.05035-0.02541c0.01706-0.01741,0.03442-0.03452,0.05167-0.05176
			s0.03448-0.03448,0.05173-0.05172c0.01721-0.01724,0.03635-0.03301,0.05118-0.05212
			c0.01541-0.01987,0.04144-0.02056,0.05789-0.03812c0.02914-0.03112,0.06247-0.0586,0.08957-0.09132
			c0.02911-0.0352,0.07278-0.04959,0.10403-0.08248c0.03854-0.04055,0.07245-0.08679,0.12656-0.11215
			c0.03113-0.01459,0.04736-0.05004,0.08191-0.06686c0.03107-0.0151,0.05472-0.04729,0.07874-0.07451
			c0.02615-0.02965,0.0614-0.04202,0.09518-0.0578c0.00339-0.01036,0.00674-0.02074,0.00967-0.02983
			c0.00967-0.00062,0.01562-0.001,0.02155-0.00138c0.02371-0.02371,0.04742-0.04741,0.07156-0.07156c0.01163,0,0.02368,0,0.03931,0
			c0.02164-0.0225,0.04446-0.0469,0.06812-0.07049c0.00818-0.00816,0.0177-0.01912,0.02774-0.02043
			c0.02478-0.00323,0.03049-0.03356,0.04892-0.03588c0.02527-0.00318,0.03384-0.02277,0.05032-0.03424
			c0.01898-0.01323,0.02756-0.03803,0.05615-0.0418c0.01944-0.00256,0.02539-0.03358,0.04901-0.03513
			c0.0264-0.00173,0.02985-0.03436,0.05765-0.03882c0.01736-0.00278,0.03418-0.0237,0.04633-0.04013
			c0.01074-0.01457,0.02792-0.00813,0.03854-0.01871c0.01062-0.01056,0.02222-0.02914,0.03299-0.02888
			c0.03204,0.00078,0.0354-0.04328,0.06717-0.03822c0.01987-0.01829,0.0397-0.03657,0.05957-0.05486
			c0.03244,0.00017,0.0416-0.0315,0.06317-0.04618c0.0047-0.00319,0.00977-0.00582,0.01468-0.00869
			c0.00912,0.00001,0.01828,0.00001,0.03085,0.00001c0.01089-0.011,0.02359-0.02379,0.03629-0.03657
			c0.02319,0.00586,0.0321-0.01392,0.04367-0.02632c0.0127-0.01359,0.03564-0.00699,0.04459-0.02545
			c0.01025-0.02118,0.03586-0.01768,0.05109-0.03182c0.00772-0.00718,0.02206-0.00705,0.03033-0.01393
			c0.01141-0.00953,0.0199-0.02257,0.02716-0.03115c0.01813,0,0.03012,0,0.04147,0c0.00928-0.00929,0.0174-0.01849,0.02664-0.02638
			c0.01117-0.00951,0.01791-0.02455,0.03259-0.02781c0.01068,0,0.01984,0,0.03378,0
			c0.01086-0.02786,0.04471-0.03048,0.06555-0.05033c0.0238-0.02266,0.05576-0.02896,0.08133-0.04615
			c0.0127-0.00851,0.0285-0.00856,0.03815-0.01849c0.01666-0.01716,0.03467-0.03037,0.05734-0.03881
			c0.02103-0.00784,0.04208-0.01725,0.06076-0.02955c0.02646-0.01741,0.06079-0.02374,0.07648-0.05381
			c0.01883-0.00258,0.03629,0.00342,0.05209-0.01239c0.01141-0.01141,0.03409-0.00911,0.04327-0.02669
			c0.00946-0.01807,0.0322-0.01241,0.04431-0.02573c0.01193-0.01309,0.03494-0.00777,0.04407-0.02594
			c0.01657,0.00133,0.02826-0.00685,0.03726-0.01946c0.0126,0,0.02475,0,0.0368,0c0.017-0.01147,0.02628-0.02983,0.04822-0.03857
			c0.02151-0.00857,0.0419-0.01746,0.06491-0.01946c0.01086-0.01086,0.02164-0.02163,0.03296-0.03294c0.01151,0,0.02356,0,0.03796,0
			c0.01471-0.03141,0.05185-0.03382,0.07672-0.05652c0.01672,0,0.0347,0,0.03564,0c0.03604-0.00905,0.03955-0.03947,0.0668-0.03543
			c0.01529-0.01696,0.03455-0.02171,0.05643-0.01829c0.0101-0.01678,0.03302-0.01331,0.04382-0.0256
			c0.0152-0.01733,0.03482-0.00531,0.04996-0.01278c0.01785-0.0088,0.03275-0.02572,0.05118-0.03066
			c0.02213-0.00593,0.04431-0.00806,0.06442-0.02179c0.01602-0.01094,0.0394-0.01278,0.05261-0.02572
			c0.01373-0.01347,0.03345-0.00838,0.04599-0.02414c0.01266-0.01593,0.04324,0.00592,0.05515-0.02005
			c0.01791-0.0018,0.03101-0.01362,0.04581-0.02192c0,0,0.00604,0.00013,0.00903-0.00024
			c0.00864-0.00108,0.02197,0.00056,0.02502-0.00423c0.01099-0.01731,0.03448-0.009,0.04535-0.02507
			c0.00272-0.00398,0.00992-0.00491,0.01505-0.00722c0.01523,0.00001,0.03049,0.00001,0.04587,0.00001
			c0.00934-0.01772,0.03354-0.01283,0.04349-0.0259c0.01694-0.02224,0.04984,0.00305,0.06403-0.02486
			c0.00229-0.00446,0.01639-0.00368,0.02505-0.00392c0.01782-0.00049,0.0368,0.00344,0.04831-0.01593
			c0.03372,0.00657,0.0578-0.02933,0.09256-0.02066c0.00635-0.00582,0.01297-0.01187,0.01999-0.01829c0.01764,0,0.03586,0,0.05392,0
			c0.00677-0.00629,0.01337-0.01241,0.02029-0.01884c0.01184,0,0.0239,0,0.03043,0c0.02429-0.01365,0.04413-0.02481,0.06738-0.03787
			c0.03763,0.01677,0.0676-0.02231,0.10608-0.0213c0.00421,0.00011,0.00861-0.00802,0.01294-0.01235
			c0.02048-0.00099,0.04099-0.00196,0.05759-0.00274c0.00803-0.00801,0.01233-0.01233,0.01672-0.0167c0.02429,0,0.04865,0,0.07272,0
			c0.00674-0.00632,0.01334-0.01246,0.02017-0.01884c0.01202,0,0.02408,0,0.03494,0c0.0076-0.00667,0.01425-0.01253,0.02142-0.01884
			c0.01804,0,0.03604,0,0.05298,0c0.00534-0.00535,0.00967-0.00966,0.01721-0.01721c0.02328,0,0.04984,0,0.07077,0
			c0.01196-0.00918,0.01883-0.01444,0.0267-0.02047c0.01776,0,0.03546,0,0.05099,0c0.00647-0.00646,0.01077-0.01077,0.01831-0.01831
			c0.02948,0,0.06219,0,0.09164,0c0.00735-0.0075,0.01163-0.01184,0.01584-0.01613c0.0184,0,0.03668,0,0.05457,0
			c0.00681-0.00633,0.0134-0.01245,0.02026-0.01884c0.02423,0,0.04846,0,0.07208,0c0.00491-0.00489,0.00922-0.0092,0.01675-0.01674
			c0.02328,0,0.04984,0,0.07315,0c0.00754-0.00754,0.01184-0.01185,0.01938-0.01939c0.02332,0,0.04984,0,0.07315,0
			c0.00754-0.00754,0.01184-0.01185,0.01938-0.01939c0.02945,0,0.0621,0,0.09143,0c0.00754-0.00754,0.01187-0.01185,0.01941-0.01939
			c0.02945,0,0.06216,0,0.09232,0c0.00677-0.00735,0.01093-0.0118,0.01483-0.01604c0.03098,0,0.06143,0,0.09131,0
			c0.00696-0.00639,0.01355-0.01246,0.02051-0.01884c0.0242,0,0.0484,0,0.0719,0c0.005-0.00498,0.00931-0.00929,0.01685-0.01683
			c0.03546,0,0.07422,0,0.10971,0c0.00754-0.00754,0.01184-0.01185,0.01938-0.01939c0.03549,0,0.07428,0,0.10974,0
			c0.00754-0.00754,0.01184-0.01185,0.01614-0.01618c0.03854-0.0057,0.07785,0.0028,0.11407-0.00435
			c0.00641-0.00641,0.01071-0.01072,0.01572-0.01572c0.04797,0,0.09665,0.00008,0.14532-0.00025c0,0,0.00449-0.0036,0.00674-0.00553
			c0.00433-0.00418,0.00873-0.00835,0.01328-0.01271c0.04852,0,0.09723,0,0.14523,0
			c0.00711-0.00646,0.01373-0.01248,0.02072-0.01884c0.06683,0,0.1337,0,0.19977,0c0.00507-0.00507,0.00937-0.00938,0.01559-0.01561
			c0.15262,0,0.30713,0,0.461,0c0.005,0.00501,0.00931,0.00932,0.01685,0.01686c0.15131,0,0.30585,0,0.45712,0
			c0.00754,0.00754,0.01187,0.01185,0.01782,0.01779c0.19925,0,0.40018-0.00002,0.60107,0.0002c0,0,0.00479,0.00301,0.00717,0.00462
			c0.0043,0.00431,0.00861,0.00862,0.01318,0.0132c0.17642,0,0.35309,0,0.52951,0c0.0069,0.00636,0.01352,0.01246,0.01981,0.01827
			c0.03073,0,0.06113,0,0.0907,0c0.00723-0.00652,0.01385-0.01249,0.01904-0.01717c0.026,0,0.05017,0,0.07245,0
			c0.00824,0.00694,0.01495,0.01261,0.01907,0.01606c0.02124,0,0.03912,0,0.05426,0
			c0.00836-0.00645,0.01428-0.01102,0.01987-0.01532c0.00662,0.00662,0.01093,0.01093,0.01669,0.01671
			c0.07147,0,0.14441-0.00005,0.21735,0.00021c0.00238,0.00001,0.00473,0.00312,0.00708,0.00478
			c0.0043,0.00431,0.00864,0.00862,0.01312,0.01311c0.10336,0,0.20694,0,0.3103,0c0.00681,0.00629,0.01343,0.0124,0.02039,0.01884
			c0.03613,0,0.0726,0,0.10809,0c0.00739,0.00658,0.01404,0.01251,0.02112,0.01884c0.06683,0,0.13364,0,0.19949,0
			c0.00522,0.00523,0.00952,0.00954,0.01706,0.01708c0.07812,0,0.15958,0,0.2355,0c0.01181,0.0092,0.01868,0.01453,0.02646,0.02059
			c0.03613,0,0.0722,0,0.10608,0c0.00632,0.00634,0.01065,0.01065,0.01505,0.01505c0.05072,0.00454,0.10205-0.00312,0.15005,0.00377
			c0.0069,0.00691,0.01123,0.01122,0.01562,0.01563c0.06693,0,0.13394,0,0.20068,0c0.00677,0.00632,0.01337,0.01246,0.0202,0.01884
			c0.05466,0,0.10938,0,0.16296,0c0.00754,0.00665,0.01422,0.01253,0.02136,0.01884c0.01804,0,0.03604,0,0.05304,0
			c0.00531,0.00532,0.00961,0.00963,0.01715,0.01717c0.05984,0,0.12302,0,0.18286,0
			c0.00754,0.00754,0.01187,0.01185,0.01941,0.01939c0.02939,0,0.06216,0,0.09143,0
			c0.00754,0.00754,0.01184,0.01185,0.01614,0.01617c0.03864,0.00364,0.07779-0.00186,0.11227,0.00253
			c0.00821,0.00823,0.01254,0.01254,0.01685,0.01686c0.04266,0,0.08533,0,0.12766,0
			c0.00674,0.00631,0.01334,0.01245,0.02017,0.01884c0.03644,0,0.07285,0,0.10873,0c0.00485,0.00486,0.00916,0.00916,0.01669,0.0167
			c0.02936,0,0.06201,0,0.09143,0c0.00754,0.00754,0.01184,0.01185,0.01938,0.01939c0.02332,0,0.04987,0,0.07071,0
			c0.01205,0.00916,0.01892,0.0144,0.02682,0.02042c0.01776,0,0.03543,0,0.0509,0c0.0065,0.00651,0.01083,0.01083,0.01559,0.01561
			c0.02988,0,0.06024,0,0.09055,0c0.00684,0.00638,0.0134,0.01252,0.02017,0.01884c0.02408,0,0.04843,0,0.0723,0
			c0.0069,0.00637,0.01349,0.01246,0.02042,0.01884c0.0242,0,0.0484,0,0.07199,0c0.00494,0.00494,0.00925,0.00925,0.01678,0.0168
			c0.0415,0,0.08643,0,0.12799,0c0.00754,0.00754,0.01184,0.01185,0.017,0.017c0.01349,0.00148,0.02789,0.00306,0.04108,0.0045
			c0.00543,0.00543,0.00974,0.00974,0.01498,0.01498c0.02316,0,0.0473,0,0.07144,0c0.00711,0.00633,0.01376,0.01225,0.02118,0.01884
			c0.01715,0,0.03534,0,0.05322,0c0.00696,0.00644,0.01355,0.01255,0.02036,0.01884c0.02414,0,0.04846,0,0.07217,0
			c0.00705,0.00643,0.01364,0.01247,0.02063,0.01884c0.01807,0,0.03616,0,0.05261,0
			c0.00803,0.00685,0.01474,0.01258,0.02377,0.02031c0.03665-0.02069,0.06378,0.02146,0.10059,0.01667
			c0.00836-0.00109,0.01852,0.012,0.02588,0.01716c0.01822,0,0.03345,0,0.04965,0c0.0061,0.0055,0.01273,0.01147,0.01999,0.01799
			c0.01126,0,0.02338,0,0.03519,0c0.00693,0.00638,0.01352,0.01248,0.02042,0.01884c0.03012,0,0.06055,0,0.09015,0
			c0.0072,0.0065,0.01382,0.01249,0.02084,0.01884c0.0181,0,0.03616,0,0.05237,0c0.00821,0.00692,0.01492,0.0126,0.02393,0.02019
			c0.03967-0.01852,0.06949,0.02178,0.10815,0.02002c0,0,0.00858,0.00801,0.0144,0.01383c0.02875,0,0.05902-0.00011,0.08929,0.00021
			c0.00238,0.00003,0.00473,0.00309,0.00708,0.00474c0.0043,0.00431,0.00864,0.00862,0.01312,0.01313c0.01804,0,0.03629,0,0.05429,0
			c0.00684,0.0063,0.01343,0.01241,0.02039,0.01884c0.01178,0,0.02386,0,0.035,0c0.00735,0.00657,0.01401,0.01251,0.02109,0.01884
			c0.01807,0,0.0361,0,0.05212,0c0.00836,0.00699,0.01511,0.01263,0.02048,0.01711c0.02493,0.00302,0.05133-0.00939,0.0687,0.01612
			c0.03625-0.00384,0.06302,0.02861,0.09583,0.02267c0.00748,0.0075,0.01181,0.01181,0.0162,0.01623c0.01816,0,0.03641,0,0.05441,0
			c0.00677,0.00632,0.01334,0.01245,0.0202,0.01884c0.02417,0,0.04843,0,0.06705,0c0.02441,0.01369,0.04425,0.02482,0.06448,0.03618
			c0.02231,0.00266,0.04654-0.00767,0.06689,0.01519c0.01062,0.01192,0.03586-0.00549,0.04868,0.01369
			c0.01251,0.01877,0.03589-0.00265,0.04944,0.01296c0.0043,0.00431,0.00861,0.00862,0.01294,0.01294
			c0.01218,0.00001,0.02435,0.00001,0.03622,0.00001c0.00674,0.00631,0.01334,0.01245,0.02017,0.01884
			c0.01205,0,0.02408,0,0.03485,0c0.00766,0.00671,0.01434,0.01254,0.01913,0.01672
			c0.02048,0.00116,0.04367-0.00437,0.05515,0.00478c0.01636,0.01304,0.03357,0.00966,0.04889,0.01586
			c0.01877,0.00761,0.03455,0.02011,0.05707,0.0179c0.00629-0.00062,0.0137,0.01025,0.02182,0.01686c0.01041,0,0.02246,0,0.03448,0
			c0.00684,0.00638,0.0134,0.01252,0.02017,0.01884c0.01187,0,0.02405,0,0.03574,0c0.0069,0.00636,0.01349,0.01246,0.0195,0.018
			c0.01819,0.00163,0.03601-0.00426,0.05054,0.01388c0.01132,0.01419,0.03546-0.00447,0.04901,0.01332
			c0.01089,0.01431,0.03159,0.01087,0.04501,0.025c0.01077,0.01133,0.03357-0.00327,0.04926,0.01317
			c0.01108,0.0116,0.02957,0.0161,0.05002,0.02645c0.01172,0,0.02994,0,0.04999,0c0.0065,0.01492,0.02301,0.0142,0.03506,0.021
			c0.01257,0.00707,0.02661,0.01162,0.03769,0.01913c0.01303,0.00882,0.0242,0.01385,0.03989,0.0155
			c0.01324,0.00139,0.02563,0.01105,0.039,0.01734c0.0145,0,0.02972,0,0.04208,0c0.01953,0.01103,0.03802,0.01926,0.0538,0.03115
			c0.01169,0.00882,0.02325,0.00279,0.03448,0.00551c0.01923,0.00467,0.03308,0.02611,0.05643,0.0182
			c0.01868,0.0156,0.04077,0.02076,0.06445,0.02102c0.01208,0.02539,0.0386,0.00922,0.05594,0.0194
			c0.01727,0.01013,0.03448,0.02032,0.05518,0.03252c0.01367,0,0.03192,0,0.04993,0c0.00684,0.0063,0.01343,0.01241,0.02039,0.01884
			c0.02396,0,0.04825,0,0.07251,0c0.01294,0.02338,0.03741,0.0134,0.05566,0.02055c0.0209,0.00819,0.03943,0.02247,0.05875,0.03396
			c0.01556,0,0.03079,0,0.04755,0c0.00574,0.00516,0.01379,0.01712,0.01865,0.01594
			c0.02432-0.00592,0.03214,0.02938,0.05612,0.02063c0.01306,0.0221,0.04062,0.02022,0.05881,0.03559
			c0.01425,0.01203,0.03665,0.01386,0.05411,0.02276c0.01776,0.00903,0.03271,0.02592,0.05115,0.03073
			c0.02271,0.00592,0.04288,0.01681,0.06131,0.02832c0.01706,0.01064,0.03967,0.0111,0.05231,0.02889
			c0.02258-0.00325,0.02875,0.0189,0.0434,0.02777c0.01688,0.0102,0.035,0.01833,0.05206,0.02709c0.00983,0,0.01895,0,0.02512,0
			c0.01447,0.00827,0.02667,0.01525,0.03888,0.02224c0.00186-0.0024,0.00372-0.00479,0.00558-0.00719
			c0.01105,0.01435,0.02209,0.02869,0.02957,0.03838c0.01871,0.00168,0.03433-0.00173,0.04172,0.00457
			c0.0332,0.02831,0.08438,0.0284,0.10596,0.07017c0.01468,0,0.02682,0,0.03259,0c0.06049,0.03115,0.11591,0.0597,0.17664,0.09097
			c0.0116,0,0.02979,0,0.05078,0c0.00912,0.00982,0.01837,0.02232,0.03015,0.03157c0.00851,0.0067,0.02118,0.00785,0.0307,0.01362
			c0.03427,0.02072,0.07614,0.02954,0.10135,0.06443c0.02716-0.00268,0.04474,0.03124,0.07285,0.01986
			c0.01999,0.01312,0.03275,0.03173,0.05774,0.04048c0.02292,0.00802,0.04681,0.02003,0.06845,0.03261
			c0.02463,0.01432,0.05096,0.0265,0.07239,0.0481c0.01462,0.01475,0.04105,0.0172,0.06107,0.02739
			c0.01776,0.00905,0.03772,0.01804,0.04987,0.03273c0.01624,0.01968,0.0441,0.01629,0.05905,0.03648
			c0.00409,0.0055,0.01721,0.00347,0.02338,0.0084c0.01587,0.01265,0.02689,0.03241,0.05093,0.03193
			c0.00885,0.01864,0.03412,0.00958,0.04404,0.02591c0.01172,0.01924,0.03256,0.02341,0.05066,0.03237
			c0.02533,0.01253,0.05313,0.02223,0.07468,0.03961c0.02527,0.0204,0.05154,0.03505,0.08182,0.04622
			c0.01562,0.00576,0.02582,0.03157,0.04041,0.03349c0.02182,0.00287,0.03201,0.0281,0.05508,0.02281
			c0.01294,0.01293,0.02704,0.0249,0.03848,0.03904c0.01364,0.01684,0.03949,0.01155,0.05151,0.03173
			c0.00552,0.00926,0.01599,0.01481,0.02811,0.01945c0.01828,0.007,0.03159,0.02935,0.04974,0.03366
			c0.02417,0.00574,0.03085,0.03356,0.04889,0.036c0.02509,0.00338,0.03735,0.01948,0.04959,0.03469
			c0.01413,0.01757,0.03647,0.01806,0.05127,0.03183c0.01559,0.01453,0.03027,0.03004,0.04535,0.04513
			c0.03485-0.00594,0.04089,0.04405,0.07538,0.03879c0.02368,0.0237,0.04739,0.04741,0.07111,0.07112
			c0,0,0.00616-0.00047,0.00912,0.00008c0.0343,0.00637,0.04053,0.05266,0.07785,0.05478
			c0.03091,0.0288,0.06183,0.0576,0.09491,0.08842c0.00754,0.00261,0.01816,0.00628,0.0264,0.00913
			c0.00232,0.01133,0.004,0.01966,0.00546,0.02678c0.01099,0.00287,0.01923,0.00502,0.0224,0.00585
			c0.04465,0.0323,0.06897,0.08136,0.12033,0.0983c0.03232,0.03233,0.06467,0.06465,0.09698,0.09698
			c0.01059,0.00362,0.02121,0.00724,0.02917,0.00996c0.00241,0.0116,0.00415,0.01993,0.00558,0.02682
			c0.01324,0.00418,0.02362,0.00746,0.03265,0.01031c0.00067,0.00994,0.00107,0.01587,0.00162,0.02411
			c0.00735,0.0022,0.01547,0.00463,0.02924,0.00876c0.01074,0.01074,0.03357,0.02328,0.03903,0.04113
			c0.01263,0.04112,0.04453,0.05783,0.07666,0.07656c0.00049,0.0059,0.00095,0.01181,0.00064,0.00804
			c0.03293,0.03295,0.06067,0.06069,0.09042,0.09048c0.00403,0.00169,0.01172,0.0049,0.01889,0.00789c0,0.00803,0,0.01406,0,0.02233
			c0.03595,0.03518,0.07294,0.07136,0.1098,0.10746c0,0.00647,0,0.01248,0,0.02084c0.03595,0.03514,0.07291,0.07128,0.10931,0.10688
			c0.00034,0.007,0.00061,0.01298,0.00089,0.01891c0.02374,0.02375,0.04858,0.04644,0.07083,0.07145
			c0.02124,0.02389,0.05432,0.03911,0.0585,0.07618c0.02374,0.02364,0.04752,0.04728,0.07108,0.07072c0,0.00651,0,0.01259,0,0.01862
			c0.03021,0.03022,0.06039,0.06039,0.09061,0.09061c0.00027,0.00593,0.00055,0.01191,0.00079,0.01789
			c0.01279,0.01902,0.04041,0.02828,0.03793,0.05742c0.01724,0.01724,0.03448,0.03448,0.05173,0.05172
			c-0.00739,0.02362,0.02756,0.03203,0.01999,0.05576c0.0228,0.02659,0.05276,0.0469,0.06488,0.08286
			c0.00525,0.01549,0.02362,0.02272,0.02869,0.04327c0.00439,0.01781,0.0271,0.03105,0.04156,0.04646
			c0.004,0.00428,0.01096,0.00936,0.01062,0.01358c-0.00226,0.02679,0.02917,0.03196,0.03326,0.05023
			c0.00589,0.02631,0.02502,0.03925,0.04019,0.05676c-0.00992,0.02433,0.02881,0.03181,0.01938,0.05597
			c0.02707,0.01982,0.03876,0.05059,0.05344,0.07851c0.01566,0.02986,0.03235,0.05951,0.043,0.09146
			c0.00879,0.00229,0.01706,0.00445,0.02246,0.00586c0.02524,0.04949,0.04959,0.09725,0.07394,0.14499
			c0.00644,0.01258,0.01004,0.02851,0.01999,0.03698c0.02112,0.01797,0.02316,0.04693,0.04233,0.06521
			c-0.00507,0.03178,0.0419,0.03521,0.03656,0.06713c0.03635,0.05436,0.05649,0.11732,0.09143,0.17241
			c-0.0036,0.03098,0.04376,0.0342,0.03659,0.06713c0.02029,0.01089,0.01794,0.03531,0.03064,0.05168
			c0.01334,0.01716,0.0148,0.0434,0.02777,0.06098c0.01724,0.02333,0.0213,0.05642,0.04953,0.06804
			c0.00565,0.01662-0.00323,0.03148,0.00735,0.04597c0.01666,0.02283,0.02783,0.0495,0.03827,0.07542
			c0.00946,0.0235,0.02643,0.0426,0.03098,0.06989c0.00443,0.02671,0.02209,0.05143,0.035,0.07649
			c0.02213,0.043,0.03632,0.09069,0.0751,0.12291c0,0.01999,0,0.03769,0,0.05329c0.01288,0.01288,0.02365,0.02365,0.03445,0.03443
			c0,0.01218,0,0.02437,0,0.03684c0.00421,0.00413,0.0101,0.00764,0.01263,0.01279c0.00861,0.0177,0.02148,0.03569,0.02249,0.05413
			c0.0011,0.01985,0.0162,0.03184,0.01837,0.04739c0.00293,0.02085,0.02411,0.03169,0.02155,0.05643
			c-0.0018,0.01704,0.0094,0.04136,0.02295,0.05268c0.0206,0.01721,0.00089,0.04344,0.01868,0.05681
			c0.01562,0.01175,0.00879,0.03316,0.02493,0.04535c0.01443,0.01089-0.00439,0.03535,0.0134,0.04889
			c0.01431,0.01091,0.00806,0.03432,0.02563,0.04455c0.00302,0.00175,0.00354,0.01168,0.00192,0.01682
			c-0.00665,0.02125,0.02115,0.03072,0.01767,0.04718c-0.00522,0.02445,0.01495,0.03712,0.01978,0.0565
			c0.00333,0.0134,0.01678,0.02564,0.01657,0.03825c-0.00034,0.02002,0.00809,0.03358,0.01947,0.0473
			c-0.00766,0.03095,0.02374,0.05276,0.01944,0.08401c-0.00116,0.00828,0.01193,0.01852,0.01712,0.02588
			c0,0.01819,0,0.03343,0,0.04963c0.00549,0.0061,0.01144,0.01274,0.01797,0.02002c0,0.01123,0,0.02334,0,0.03513
			c0.00641,0.00693,0.01248,0.01355,0.01883,0.02043c0,0.01186,0,0.02398,0,0.03532c0.0065,0.00718,0.01251,0.0138,0.01736,0.01917
			c0.00348,0.01577-0.00607,0.03256,0.00885,0.04392c0.01495,0.01139,0.00662,0.0279,0.01068,0.04142
			c0.00482,0.01605,0.02054,0.0267,0.01898,0.04755c-0.00092,0.01222,0.0108,0.02539,0.01703,0.03853c0,0.01475,0,0.02999,0,0.04608
			c0.00558,0.00616,0.0116,0.01278,0.01807,0.01989c0,0.01143,0,0.02356,0,0.03546c0.00632,0.00684,0.01242,0.01346,0.01883,0.02041
			c0,0.01177,0,0.02386,0,0.03561c0.00467,0.00466,0.01074,0.00821,0.01297,0.01341c0.00885,0.02073,0.00003,0.04792,0.02328,0.0635
			c-0.0145,0.03773,0.0231,0.06588,0.01913,0.10223c-0.00067,0.00631,0.01001,0.01385,0.01675,0.02252
			c0,0.01589,0,0.03399,0,0.05209c0.00638,0.00694,0.01245,0.01354,0.01883,0.0205c0,0.01161,0,0.02376,0,0.03568
			c0.00632,0.00677,0.01245,0.01335,0.01886,0.02021c0,0.02415,0,0.04841,0,0.06705c0.01364,0.02433,0.02478,0.0442,0.03763,0.06709
			c-0.0155,0.04327,0.01721,0.08142,0.02148,0.12466c0.00049,0.00469,0.00812,0.00867,0.01566,0.0162c0,0.02337,0,0.04997,0,0.07315
			c0.00754,0.00754,0.01184,0.01185,0.01617,0.01616c0,0.01218,0,0.02436,0,0.03622
			c0.00632,0.00677,0.01245,0.01335,0.01886,0.02019c0,0.03032,0,0.06066,0,0.09046
			c0.00482,0.00484,0.00912,0.00915,0.01669,0.01669c0,0.02933,0,0.06199,0,0.09142
			c0.00754,0.00754,0.01184,0.01185,0.01938,0.01939c0,0.02933,0,0.0621,0,0.08901c0.00919,0.01202,0.01443,0.01889,0.02045,0.02677
			c0,0.01777,0,0.03545,0,0.05094c0.0065,0.0065,0.0108,0.01081,0.01559,0.01561c0,0.02984,0,0.06018,0,0.0905
			c0.00638,0.00683,0.01251,0.01341,0.01883,0.02019c0,0.02405,0,0.04842,0,0.07233
			c0.00638,0.00686,0.01248,0.01345,0.01886,0.02034c0,0.01814,0,0.03625,0,0.05374
			c0.00491,0.00492,0.00922,0.00924,0.01678,0.01678c0,0.02934,0,0.062,0,0.09142c0.00754,0.00754,0.01184,0.01185,0.01938,0.01939
			c0,0.01722,0,0.03766,0,0.05487c0.00754,0.00754,0.01184,0.01185,0.01938,0.01939c0,0.02943,0,0.0621,0,0.09143
			c0.00757,0.00754,0.01187,0.01185,0.01697,0.01697c0,0.05393-0.00006,0.10868,0.00024,0.16342
			c0,0,0.00354,0.00454,0.00815,0.01008c0.00134,0.00121,0.00583,0.00528,0.01007,0.00909c0,0.03721,0,0.07374,0,0.10967
			c0.00641,0.00701,0.01245,0.01361,0.01883,0.02057c0,0.03638,0,0.07277,0,0.10842c0.005,0.00502,0.00931,0.00933,0.01685,0.01687
			c0,0.04151,0,0.08643,0,0.128c0.00757,0.00754,0.01187,0.01185,0.01941,0.0194c0,0.04155,0,0.08648,0,0.12799
			c0.00754,0.00755,0.01184,0.01186,0.01617,0.01617c0.00055,0.00281,0.00165,0.00562,0.00165,0.00842
			c0.00009,0.04571,0,0.09142,0.00027,0.13714l0.00452,0.00718c0.00433,0.00431,0.00864,0.00862,0.01358,0.01356
			c0,0.04805-0.00009,0.09672,0.00024,0.14539l0.00558,0.00672c0.00415,0.00437,0.0083,0.00874,0.01266,0.01334
			c0,0.07287,0,0.14595,0,0.21827c0.0065,0.00716,0.01251,0.01378,0.01886,0.02079c0,0.06684,0,0.13367,0,0.1997
			c0.0051,0.0051,0.0094,0.00941,0.01694,0.01694c0,0.22444,0,0.45213,0,0.67851c0.00842,0.00347,0.01364,0.00561,0.01883,0.00776
			c0,0.01219,0,0.02438,0,0.03657c-0.01736-0.00134-0.01889,0.01056-0.0181,0.02293c0.00085,0.01321-0.00635,0.0318,0.0181,0.03193
			c0,0.02438,0,0.04876,0,0.07314c-0.00525,0.00218-0.01047,0.00436-0.01892,0.00788c0,0.1776,0,0.35654,0,0.5322
			c-0.00754,0.00754-0.01187,0.01185-0.01764,0.01763c0,0.05927,0.00006,0.12002-0.00021,0.18077l-0.00476,0.00708
			c-0.00433,0.00431-0.00864,0.00862-0.01312,0.01312c0,0.06071,0,0.12161,0,0.18231
			c-0.00629,0.0068-0.01242,0.01341-0.01883,0.02036c0,0.08492,0,0.17015,0,0.25439
			c-0.00659,0.00738-0.01251,0.01403-0.01886,0.02113c0,0.06072,0,0.12142,0,0.18118
			c-0.00522,0.00524-0.00952,0.00955-0.01706,0.01708c0,0.08423,0,0.17177,0,0.25379
			c-0.00922,0.01181-0.01456,0.01866-0.0206,0.02644c0,0.0605,0,0.12092,0,0.17922
			c-0.00635,0.00634-0.01065,0.01065-0.01627,0.01627c0,0.04727,0.00006,0.09585-0.00021,0.14443
			c0,0-0.00323,0.00467-0.00494,0.00701c-0.0043,0.00431-0.00864,0.00862-0.01303,0.01303c0,0.06691,0,0.13393,0,0.20069
			c-0.00632,0.00677-0.01245,0.01335-0.01883,0.02019c0,0.04856,0,0.0972,0,0.1447
			c-0.00665,0.00753-0.01254,0.01419-0.01886,0.02135c0,0.06679,0,0.13357,0,0.19931
			c-0.00531,0.00532-0.00961,0.00962-0.01715,0.01716c0,0.04154,0,0.08647,0,0.128
			c-0.00754,0.00754-0.01184,0.01186-0.01727,0.01729c0,0.04121,0,0.08358,0,0.12597
			c-0.00632,0.00723-0.01212,0.01392-0.01834,0.02106c-0.00085,0.01368-0.00177,0.0281-0.00241,0.03828
			c-0.0083,0.00831-0.01263,0.01262-0.01694,0.01693c0,0.02438,0,0.04876,0,0.07279
			c-0.00632,0.00677-0.01245,0.01335-0.01883,0.0202c0,0.03032,0,0.06065,0,0.08968
			c-0.00671,0.00768-0.01254,0.01437-0.01886,0.02158c0,0.01804,0,0.03601,0,0.05288c-0.0054,0.0054-0.0097,0.00971-0.01724,0.01725
			c0,0.0233,0,0.04984,0,0.07314c-0.00754,0.00754-0.01187,0.01185-0.01941,0.01939c0,0.02331,0,0.04991,0,0.07316
			c-0.00754,0.00754-0.01184,0.01185-0.01938,0.01939c0,0.02947,0,0.06218,0,0.09201
			c-0.00742,0.00706-0.01181,0.01124-0.01608,0.0153c0,0.03081,0,0.06126,0,0.09124
			c-0.00638,0.00689-0.01245,0.01348-0.01883,0.02038c0,0.01813,0,0.03623,0,0.0537
			c-0.00494,0.00495-0.00928,0.00926-0.01682,0.01679c0,0.02314,0,0.04978,0,0.07316
			c-0.00754,0.00754-0.01184,0.01185-0.017,0.01702c-0.00146,0.01347-0.00305,0.02788-0.00449,0.04105
			c-0.00543,0.00543-0.00977,0.00974-0.0173,0.01727c0,0.02332,0,0.04996,0,0.07315
			c-0.00754,0.00754-0.01184,0.01185-0.01654,0.01654c0,0.01779,0,0.03597,0,0.05387
			c-0.00644,0.00694-0.01254,0.01354-0.01883,0.02032c0,0.01195,0,0.0241,0,0.0356
			c-0.00644,0.00704-0.01248,0.01365-0.01883,0.02061c0,0.0303,0,0.06058,0,0.08921
			c-0.00687,0.00802-0.0126,0.01473-0.01758,0.02056c0,0.01676,0.00085,0.03207-0.00024,0.04722
			c-0.0011,0.01465-0.02151,0.01991-0.01852,0.03823c0.00235,0.01435,0.00049,0.0294,0.00049,0.03765
			c-0.00955,0.01284-0.01471,0.01975-0.01791,0.02404c-0.00217,0.02141,0.00391,0.03973-0.00513,0.05669
			c-0.00433,0.00431-0.00864,0.00862-0.01324,0.01323c0,0.0179,0,0.0361,0,0.05401
			c-0.00638,0.00692-0.01248,0.01354-0.01883,0.02043c0,0.01794,0,0.03616,0,0.04979
			c-0.01224,0.02073-0.02325,0.03754-0.03217,0.05539c-0.00372,0.0074-0.00485,0.0173-0.00378,0.02563
			c0.0029,0.02222-0.02359,0.0317-0.02054,0.0567c0.00208,0.01693-0.01328,0.03617-0.02151,0.05408
			c-0.00354,0.00772-0.01147,0.01428-0.01257,0.02206c-0.00211,0.01449-0.00015,0.02778-0.01215,0.0413
			c-0.01062,0.01195-0.01138,0.03209-0.02594,0.04461c0,0.01746,0,0.0355,0,0.05151
			c-0.02194,0.02254-0.02478,0.05651-0.05328,0.07042c0,0.0197,0,0.0378,0,0.05322c-0.0072,0.01207-0.01715,0.02155-0.01797,0.03176
			c-0.00119,0.01485-0.01559,0.01815-0.01892,0.02902c-0.00418,0.01374,0.00229,0.0279-0.00687,0.04305
			c-0.02191,0.03617-0.03784,0.07596-0.05984,0.11204c-0.00928,0.01517-0.00366,0.02899-0.00751,0.04455
			c-0.01132,0.01189-0.02371,0.02492-0.03583,0.03765c0,0.00973,0.00372,0.02156-0.00061,0.02758
			c-0.03207,0.04456-0.03601,0.10104-0.06442,0.14735c-0.01459,0.02382-0.03381,0.04829-0.02454,0.08907
			c-0.01123,0.00745-0.02646,0.01758-0.03961,0.02631c0,0.01654,0,0.0284,0,0.03907
			c-0.0098,0.00981-0.01953,0.01762-0.02667,0.02733c-0.00479,0.00651-0.00357,0.01872-0.00916,0.02312
			c-0.0174,0.01366-0.01578,0.03656-0.02914,0.05266c-0.01218,0.01462-0.02499,0.03594-0.02341,0.053
			c0.00229,0.02457-0.02139,0.03541-0.02017,0.0566c-0.02606,0.0376-0.03424,0.08647-0.07339,0.11519c0,0.01292,0,0.02504,0,0.03686
			c-0.01547,0.01777-0.03854,0.0299-0.03903,0.05737c-0.01492,0.00821-0.01071,0.02838-0.02014,0.03687
			c-0.02036,0.01836-0.02719,0.04596-0.0455,0.06331c-0.01813,0.01718-0.02078,0.04129-0.0372,0.05867
			c-0.0177,0.01872-0.03061,0.04192-0.0459,0.06295c-0.01529,0.02103-0.02161,0.04841-0.0451,0.06371l-0.00439,0.00717
			c-0.00275,0.02358-0.02264,0.03929-0.02805,0.06158c-0.02664,0.01295-0.02304,0.04828-0.04553,0.06308
			c-0.0217,0.01426-0.0152,0.04564-0.03851,0.05749c-0.01822,0.00925-0.01291,0.03155-0.02551,0.04451
			c-0.01187,0.01222-0.02634,0.02114-0.02911,0.04318c-0.0018,0.01453-0.0224,0.02672-0.03461,0.03995
			c0.004,0.02953-0.03311,0.03483-0.03571,0.05809c-0.00281,0.02541-0.02219,0.03621-0.03741,0.04811
			c-0.02026,0.01585-0.0163,0.04364-0.03748,0.05883c-0.01849,0.01327-0.03177,0.0318-0.04138,0.05544
			c-0.008,0.01966-0.02716,0.03592-0.03796,0.05729c-0.00916,0.01809-0.02747,0.03282-0.04443,0.04535
			c-0.02039,0.01505-0.01926,0.04232-0.03815,0.05792c-0.01636,0.01353-0.03226,0.02846-0.04501,0.04531
			c-0.01382,0.01825-0.01895,0.04182-0.03864,0.05749c-0.0101,0.00802-0.01172,0.02584-0.02048,0.03654
			c-0.01343,0.01642-0.02972,0.03052-0.04483,0.0456c-0.01291,0.01293-0.02716,0.02481-0.03842,0.03907
			c-0.01233,0.01564-0.02014,0.03496-0.03302,0.05004c-0.03458,0.0405-0.07758,0.07251-0.10471,0.1211
			c-0.01715,0.03072-0.04773,0.05577-0.0766,0.07765c-0.03226,0.02444-0.04184,0.06351-0.06985,0.09089
			c-0.13071,0.12783-0.25952,0.25764-0.38815,0.38759c-0.01675,0.01694-0.03503,0.02957-0.0546,0.03802
			c-0.00259,0.00942-0.00485,0.01759-0.00668,0.02432c-0.01099,0.00241-0.01932,0.00424-0.02689,0.0059
			c-0.00418,0.01202-0.00787,0.02263-0.01141,0.03285c-0.00803,0-0.01407,0-0.02209,0
			c-0.01822,0.01872-0.03717,0.03844-0.0564,0.05792c-0.01926,0.01953-0.04169,0.03674-0.05737,0.05878
			c-0.01682,0.02364-0.04504,0.0264-0.0647,0.04428c-0.03937,0.03581-0.0694,0.08131-0.12067,0.10528
			c-0.02338,0.01092-0.0419,0.03553-0.0582,0.05724c-0.01709,0.02276-0.04678,0.02291-0.06485,0.04422
			c-0.02551,0.03013-0.05539,0.05656-0.0834,0.08458c-0.04416,0.00524-0.05707,0.05941-0.10123,0.06465
			c-0.02155,0.02155-0.0437,0.04254-0.06448,0.0648c-0.02228,0.02388-0.05603,0.03119-0.0773,0.05747
			c-0.01425,0.01757-0.02994,0.03357-0.05573,0.04155c-0.0206,0.00638-0.03516,0.03229-0.0524,0.04952
			c-0.02924-0.00263-0.03696,0.03233-0.05774,0.03628c-0.03134,0.00597-0.04211,0.03204-0.06259,0.04811
			c-0.01379,0.01082-0.03336,0.00872-0.04498,0.0251c-0.01035,0.01454-0.02438,0.03415-0.03894,0.03617
			c-0.02188,0.00303-0.03091,0.01731-0.04309,0.02922c-0.01492,0.01458-0.03033,0.02546-0.05042,0.03336
			c-0.01559,0.00614-0.02728,0.02375-0.03909,0.03761c-0.01569,0.01839-0.03461,0.03096-0.05725,0.03872
			c-0.01065,0.00364-0.02222,0.00671-0.03094,0.01325c-0.01205,0.00904-0.02121,0.02188-0.03281,0.03171
			c-0.01755,0.0149-0.02759,0.04119-0.05692,0.03897c-0.02509,0.03434-0.07178,0.04173-0.09631,0.07727
			c-0.00433,0.00628-0.01401,0.01111-0.02188,0.01228c-0.02356,0.00351-0.02826,0.03558-0.0488,0.03582
			c-0.02975,0.00035-0.03259,0.03576-0.05798,0.03762c-0.0249,0.00182-0.03192,0.0256-0.04849,0.03753
			c-0.00934,0.0067-0.01654,0.01448-0.02884,0.0189c-0.01566,0.0056-0.02625,0.02789-0.04156,0.03118
			c-0.02307,0.00496-0.03467,0.02092-0.05048,0.03361c-0.01328,0.01065-0.03232,0.00984-0.04465,0.02556
			c-0.01416,0.01806-0.02914,0.03849-0.0564,0.03933c-0.01648,0.02168-0.03986,0.03376-0.06357,0.04515
			c-0.01825,0.00876-0.03784,0.014-0.05106,0.03205c-0.00854,0.01165-0.0209,0.02152-0.03342,0.02904
			c-0.02179,0.01307-0.05136,0.01393-0.06677,0.03635c-0.01465,0.02134-0.04388,0.01622-0.05811,0.0381
			c-0.01465,0.02257-0.04718,0.02099-0.06409,0.04483c-0.01089,0.01537-0.03558,0.01586-0.05038,0.03234
			c-0.01489,0.01662-0.03998,0.02022-0.05954,0.0316c-0.00488,0.00284-0.01245,0.004-0.01462,0.00812
			c-0.0137,0.02623-0.04706,0.0239-0.06393,0.04504c-0.03232-0.00491-0.03802,0.03675-0.06641,0.03818
			c-0.02652,0.00132-0.02902,0.03977-0.05801,0.03669c-0.02847,0.02983-0.07104,0.04084-0.09793,0.07349
			c-0.01184,0-0.02396,0-0.03571,0c-0.00894,0.00896-0.01758,0.01758-0.02618,0.0262
			c-0.00864,0.00862-0.01584,0.02092-0.02621,0.02495c-0.01364,0.00529-0.0271,0.00801-0.03778,0.01992
			c-0.00742,0.00829-0.01413,0.01701-0.02774,0.02087c-0.05264,0.01488-0.08737,0.06403-0.14182,0.07691
			c-0.00507,0.00119-0.00827,0.00886-0.01315,0.01237c-0.00934,0.00671-0.01343,0.01861-0.02829,0.02052
			c-0.01328,0.0017-0.0256,0.01111-0.03824,0.0174c-0.0177,0.00882-0.0408,0.01367-0.05161,0.02783
			c-0.01761,0.02309-0.04794,0.02315-0.06479,0.0443c-0.03281-0.00622-0.03745,0.03754-0.06674,0.03755
			c-0.03326,0.02753-0.07162,0.04665-0.10989,0.06578c-0.01004,0.00502-0.02252,0.00663-0.03073,0.01354
			c-0.01138,0.00957-0.01981,0.02267-0.02686,0.03111c-0.01849,0-0.03049,0-0.03928,0
			c-0.01599,0.01317-0.02863,0.02642-0.04379,0.03535c-0.01685,0.00991-0.03662,0.01471-0.05399,0.0239
			c-0.01538,0.00815-0.02133,0.02745-0.04163,0.03237c-0.01874,0.00455-0.03766,0.01411-0.0527,0.02621
			c-0.01395,0.01123-0.03574,0.00673-0.04474,0.02511c-0.0231-0.00532-0.0325,0.02555-0.05533,0.02092
			c-0.01157,0.01948-0.03635,0.0156-0.052,0.02999c-0.01184,0.01091-0.03253,0.0106-0.04413,0.02486
			c-0.02222-0.00435-0.0383,0.00811-0.05688,0.01735c-0.02521,0.01252-0.04953,0.02882-0.0762,0.0361
			c-0.01715,0.00468-0.0257,0.02781-0.04691,0.01967c-0.02133-0.00819-0.02832,0.01899-0.0473,0.01873
			c-0.01761-0.00024-0.02557,0.02236-0.04651,0.02125c-0.00793-0.00042-0.01587,0.01382-0.02966,0.01558
			c-0.04358,0.00554-0.07715,0.03423-0.12244,0.05415c-0.00427,0-0.01645,0-0.02832,0
			c-0.00674,0.00631-0.01334,0.01245-0.02017,0.01884c-0.01205,0-0.02408,0-0.03485,0
			c-0.00766,0.00671-0.01434,0.01254-0.02029,0.01775c-0.01651,0-0.03201-0.00163-0.04688,0.00068
			c-0.00766,0.00118-0.01443,0.01396-0.02127,0.01367c-0.03873-0.00165-0.06894,0.03751-0.10876,0.0201
			c-0.00842,0.0074-0.01508,0.01326-0.02267,0.01993c-0.01086,0-0.02292,0-0.03494,0
			c-0.00684,0.00638-0.0134,0.01252-0.02017,0.01884c-0.01797,0-0.03622,0-0.05405,0
			c-0.00687,0.00636-0.01346,0.01245-0.02036,0.01884c-0.02423,0-0.04843,0-0.0712,0
			c-0.00781,0.00677-0.01453,0.01256-0.02179,0.01884c-0.01797,0-0.03595,0-0.05136,0
			c-0.00891,0.0072-0.01569,0.01269-0.02332,0.01884c-0.02396,0-0.04788,0-0.07004,0
			c-0.00604,0.00604-0.01035,0.01035-0.01788,0.01789c-0.03549,0-0.07434,0-0.10971,0
			c-0.00754,0.00754-0.01184,0.01185-0.01694,0.01695c-0.04178,0-0.08435-0.00008-0.12689,0.00024
			c0,0-0.00452,0.00354-0.01019,0.00827c0,0-0.00516,0.00572-0.00894,0.00993c-0.03116,0-0.06158,0-0.0914,0
			c-0.00702,0.00642-0.01364,0.01247-0.0206,0.01884c-0.03638,0-0.07275,0-0.1084,0
			c-0.00504,0.00502-0.00934,0.00933-0.01688,0.01687c-0.10251,0-0.20834,0-0.31085,0
			c-0.00754,0.00754-0.01187,0.01185-0.01718,0.01717c-0.01334,0-0.02768,0-0.04022,0
			c-0.0061-0.00613-0.01044-0.01043-0.01559-0.01561c-0.09033,0-0.18152,0-0.27463,0
			c-0.00516,0.00462-0.01178,0.01058-0.01907,0.01711c-0.0173,0-0.03552,0-0.05408,0
			c-0.00626-0.00578-0.01288-0.01188-0.01923-0.01773c-0.00629,0-0.01233,0-0.01758,0
			c-0.00717,0.00649-0.01379,0.01249-0.02081,0.01883c-0.33502,0-0.67004,0-1.00427,0
			c-0.0051,0.0051-0.0094,0.00941-0.01694,0.01695c-0.16956,0-0.34241,0-0.51392,0
			C495.99225,34.10292,495.99011,34.10812,495.98798,34.11333z M482.10651,26.68284c-0.00214-0.00383-0.0043-0.00781-0.0065-0.01178
			c-0.00204,0.00203-0.00607,0.00451-0.00574,0.00601c0.00098,0.0043,0.00369,0.00821,0.00574,0.01228
			C482.10202,26.68731,482.10406,26.68528,482.10651,26.68284z M483.02078,29.09127
			c-0.00244-0.00244-0.00449-0.00447-0.0065-0.00651c-0.00204,0.00406-0.00476,0.00797-0.00571,0.01228
			c0,0,0.00366,0.00398,0.00571,0.00601C483.01648,29.09908,483.01868,29.09511,483.02078,29.09127z M483.34607,29.7274
			c-0.00385,0.00212-0.00781,0.00431-0.00781,0.00431c-0.00195,0.00422,0.00052,0.00825,0.00052,0.00825
			c0.00583-0.00129,0.00974-0.00402,0.01379-0.00605C483.35257,29.73391,483.34851,29.72985,483.34607,29.7274z M483.44135,29.87756
			c-0.00244-0.00244-0.00446-0.00447-0.0065-0.00651c-0.00201,0.00406-0.00476,0.00797-0.00571,0.01227l0.00571,0.00601
			C483.43704,29.88536,483.43924,29.88139,483.44135,29.87756z M483.57462,30.09699c0.00214,0.00383,0.00433,0.0078,0.00653,0.01178
			c0.00201-0.00203,0.00604-0.00451,0.00571-0.00601c-0.00095-0.0043-0.00369-0.00821-0.00369-0.00821
			S483.57706,30.09455,483.57462,30.09699z M484.1362,30.88855c0,0-0.0043-0.00781-0.0065-0.01178
			c-0.00201,0.00203-0.00604,0.00451-0.00604,0.00451c0.00128,0.0058,0.00403,0.00971,0.00604,0.01378
			C484.13174,30.89302,484.13376,30.89099,484.1362,30.88855z M484.5202,31.30384l-0.0065-0.0065
			c-0.00204,0.00406-0.00476,0.00797-0.00571,0.01227c0,0,0.00366,0.00398,0.00571,0.00601
			C484.5159,31.31165,484.5181,31.30767,484.5202,31.30384z"/>
	</g>
</g>
</svg>
